<svg version="1.2" xmlns="http://www.w3.org/2000/svg" viewBox="0 0 840 232" width="840" height="232"><style>.a{fill:#072c79}.b{fill:#0639f3}.c{fill:#a6fe50}.d{fill:#bdfe7d}.e{fill:#0237fc}.f{fill:#456cfd}.g{fill:#0d23ea}.h{fill:#194af9}.i{fill:#fafbfc}.j{fill:#0539f6}.k{fill:#142bff}.l{fill:#fcfdfd}.m{fill:#fafafc}.n{fill:#fbfbfd}.o{fill:#083cfd}.p{fill:#ff031d}.q{fill:#fbfcfd}.r{fill:#0135f2}.s{fill:#195c06}.t{fill:#eef1fc}.u{fill:#0a23ff}.v{fill:#8aa2ff}.w{fill:#b6c5ff}.x{fill:#0b3efb}.y{fill:#364bfe}.z{fill:#fefeff}.A{fill:#0011ae}.B{fill:#1c600f}.C{fill:#0137fe}.D{fill:#2553fc}.E{fill:#063afa}.F{fill:#093cf7}.G{fill:#3d66fb}.H{fill:#011bfe}.I{fill:#3e52ff}.J{fill:#093dfd}.K{fill:#000d8f}.L{fill:#eaedf4}.M{fill:#e2e7f0}.N{fill:#fdfafc}.O{fill:#135500}.P{fill:#185c04}.Q{fill:#2f44ff}.R{fill:#4b71ff}.S{fill:#e7ebf4}.T{fill:#e8edfe}.U{fill:#1044ca}.V{fill:#e2e6f0}.W{fill:#e9ecf3}.X{fill:#174c93}.Y{fill:#e5e9f1}.Z{fill:#f0f3fe}.a0{fill:#e7ebf2}.a1{fill:#153881}.a2{fill:#466dff}.a3{fill:#11357f}.a4{fill:#dfe4ee}.a5{fill:#fdfbfc}.a6{fill:#1447c6}.a7{fill:#9ab0ff}.a8{fill:#fefefe}.a9{fill:#fffefe}.aa{fill:#90a7ff}.ab{fill:#a8baff}.ac{fill:#dce1ed}.ad{fill:#dbe1ec}.ae{fill:#c8d1e2}.af{fill:#edf0f6}.ag{fill:#dce1ec}.ah{fill:#1527cc}.ai{fill:#dee3ee}.aj{fill:#124985}.ak{fill:#ff394d}.al{fill:#132bfe}.am{fill:#dde2ed}.an{fill:#214287}.ao{fill:#e8ebf3}.ap{fill:#4069f9}.aq{fill:#fd001b}.ar{fill:#5f89e8}.as{fill:#e6e9f2}.at{fill:#1020b6}.au{fill:#172fff}.av{fill:#e3e8f0}.aw{fill:#e3e7f0}.ax{fill:#f77c8c}.ay{fill:#f2f4f8}.az{fill:#ffb4bc}.aA{fill:#f3f5f9}.aB{fill:#0637e0}.aC{fill:#1f36ff}.aD{fill:#6e8efc}.aE{fill:#e8ecf3}.aF{fill:#ff233a}.aG{fill:#f1f3f7}.aH{fill:#eaeef4}.aI{fill:#335eff}.aJ{fill:#5b87e7}.aK{fill:#090d1b}.aL{fill:#061fff}.aM{fill:#e0e5ef}.aN{fill:#638bed}.aO{fill:#1c4ec9}.aP{fill:#ff021c}.aQ{fill:#1a3d84}.aR{fill:#3762f8}.aS{fill:#266f09}.aT{fill:#000b7a}.aU{fill:#f16574}.aV{fill:#4d74fd}.aW{fill:#ff0a23}.aX{fill:#b7c2d9}.aY{fill:#1543dc}.aZ{fill:#193c83}.b0{fill:#183b82}.b1{fill:#1c4ed4}.b2{fill:#5076fb}.b3{fill:#001aff}.b4{fill:#fd051f}.b5{fill:#3863f4}.b6{fill:#eef1f6}.b7{fill:#2352ed}.b8{fill:#354aff}.b9{fill:#263cfe}.ba{fill:#d20016}.bb{fill:#0013ca}.bc{fill:#1020b5}.bd{fill:#577afd}.be{fill:#ff142b}.bf{fill:#1b3e84}.bg{fill:#8793fd}.bh{fill:#ff929d}.bi{fill:#75ef0b}.bj{fill:#1b527b}.bk{fill:#f4f6f9}.bl{fill:#ff001a}.bm{fill:#257100}.bn{fill:#e0e6ff}.bo{fill:#f7f9fe}.bp{fill:#0114c9}.bq{fill:#020a56}.br{fill:#d87682}.bs{fill:#3965e8}.bt{fill:#2c59f7}.bu{fill:#f8fdf7}.bv{fill:#f4f6ff}.bw{fill:#1040e8}.bx{fill:#f6f8ff}.by{fill:#11357e}.bz{fill:#2d5cda}.bA{fill:#f8f9ff}.bB{fill:#fcfefc}.bC{fill:#fefefd}.bD{fill:#ff2f44}.bE{fill:#052d8f}</style><path class="a" d="m-640-123c1578.4 0 3156.8 0 4783 0 0 163 0 326 0 494-1578.4 0-3156.8 0-4783 0 0-163 0-326 0-494z"/><path class="b" d="m195 53c1-4 2-7.9 3-12 42.2 0 84.5 0 128 0-1.1 9-1.1 9-1.9 13q-0.3 1.3-0.5 2.7-0.3 1.3-0.5 2.7-0.3 1.3-0.6 2.6-1.7 9-3.5 18c-12.2 0-24.4 0-37 0-1 5.9-2 11.9-3 18q-0.8 4.6-1.7 9.1c-0.2 1-0.2 1-0.4 2.1q-0.4 2.4-0.9 4.8-1.5 0.5-3 1-0.1 0.8-0.3 1.7c-2.1 12.4-4.3 24.7-6.8 36.9-1.7 8.3-3.2 16.5-4.6 24.8-0.8 5.3-1.9 10.4-3.3 15.6-2-1.6-2-1.6-4-4 0-3 0-3 0.6-6.4 0.3-1.8 0.3-1.8 0.7-3.7q0.3-1.9 0.7-3.9 0.3-1.7 0.6-3.5 1-5.3 2-10.6 0.6-3 1.1-5.9 1.2-6.1 2.3-12.2 1-5.1 1.9-10.1 0.8-3.8 1.5-7.6c0.3-1.7 0.3-1.7 0.6-3.5q0.3-1.4 0.6-3c0.5-2.8 0.5-2.8 0.4-6.6q-0.3 1.4-0.5 2.8-2.5 13-4.9 26-1.3 6.7-2.5 13.4-1.3 6.5-2.5 12.9-0.4 2.5-0.9 5-0.6 3.4-1.3 6.9-0.2 1-0.4 2.1c-0.9 4.7-0.9 4.7-2 6.9-11.5 0-23.1 0-35 0 1.1-10.1 1.1-10.1 1.9-14 0.2-1.2 0.2-1.2 0.5-2.6q0.2-1.3 0.5-2.7 0.6-3 1.1-6 0.3-1.6 0.6-3.2c2.9-15.1 5.8-30.2 8.2-45.3 1.5-9.4 3.2-18.7 5.3-28 1.1-5.1 2-10.1 2.9-15.2-11.9 0-23.8 0-36 0 1-11 1-11 4-22 36 0 71.9 0 109 0 0 6.6 0 6.6-1.1 10.4-1.1 4.6-0.9 8 0.1 12.6q1 1.5 2 3 0.2-1.1 0.4-2.3 1-5.2 2-10.4 0.3-1.8 0.6-3.6 0.4-1.7 0.7-3.5 0.3-1.6 0.6-3.2c0.7-2.9 1.6-5.4 2.7-8q-1.5 0-3 0-0.7 0.7-1.4 1.5c-2.1 2-3.3 1.9-6.2 1.9q-1.4 0-2.9 0-1.5 0-3.1 0-1.6 0-3.3 0-5.4 0-10.8-0.1-3.8 0-7.5 0-7.9 0-15.8 0-10.1-0.1-20.2-0.1-7.7 0-15.5 0-3.7 0-7.4 0-5.2 0-10.4 0-1.6 0-3.2 0-1.4-0.1-2.8-0.1c-1.3 0-1.3 0-2.5 0-2-0.1-2-0.1-4-1.1q0.5 0.5 1 1c-0.6 8.5-2.4 16.6-4 25 12.2 0 24.4 0 37 0q-1 2-2 4-0.1 3 0 5.9c0 3.2-0.6 6.2-1.3 9.4q-0.4 2.1-0.8 4.2c-0.2 1.1-0.2 1.1-0.4 2.2q-1.2 5.9-2.3 11.8-0.5 2.6-0.9 5.1-0.3 1.3-0.5 2.7-1.6 8.5-3.2 17-1.4 7.4-2.8 14.9-1.3 7.3-2.7 14.5-0.5 2.8-1 5.5-0.7 3.9-1.5 7.7-0.2 1.1-0.4 2.3c-0.7 3.8-1.5 7.3-3.2 10.8-2.1 1.3-2.1 1.3-4 2 0.7-7.7 2.1-15.3 3.6-22.9q1-5 1.9-10.1 0.4-2 0.8-4c0.1-1 0.1-1 0.3-2q3.6-19 7.2-38 0.1-1 0.3-2 0.4-2 0.8-4 1-5.2 1.9-10.5c0.2-1.1 0.2-1.1 0.4-2.2q0.4-2.1 0.8-4.2c0.5-2.8 1.1-5.4 2-8.1q-1.5 0.5-3 1 0.5-3 1-6c-12.9 0-25.7 0-39 0 1.3-6.6 2.6-13.2 4-20-1.3 2.5-1.3 2.5-2.7 5.1q-1.8 3.3-3.5 6.6-0.9 1.7-1.8 3.4-0.9 1.6-1.8 3.3-0.7 1.4-1.6 2.9c-1.6 2.7-3.3 4.6-5.6 6.7q-1.4-0.7-2.9-1.4c-10.9-4.6-26.2-6.1-37.6-2.2-10.3 5.1-16.3 13-20.2 23.6-3.6 11.8-1 24.4 4 35.4 3.1 5.9 6.9 9.5 13.1 12q1.3 0.3 2.6 0.6c0-1.5 0-1.5-0.1-3 0.1-4 0.6-7.8 1.4-11.7q0.4-1.9 0.8-3.9 0.4-2.4 0.9-4.8c1-5.2 2-10.3 3-15.6 17.8 0 35.6 0 54 0-3.2 23.6-3.2 23.6-5.3 32.5-0.8 4.2-1.5 8.4-2.1 12.7-1.5 9.7-3.5 19.2-5.6 28.8-29.4 9.8-57.8 13.7-86.6-0.3-18.2-10-29.7-27-35.6-46.5-5.6-22.3-0.3-45.5 10.3-65.3 12.3-20 32.4-33.2 54.7-39.2 24.9-5.4 49.4-1.7 70.2 13.3z"/><path class="c" d="m149.4 46.9c1.5 0 1.5 0 3.1 0q1.4 0 2.9 0c1.3 0 1.3 0 2.6 0 2 0.1 2 0.1 3 1.1q2.3 0.4 4.6 0.8c5 1 9 2.7 13.4 5.2q2 1 4 2c-0.6 5.1-3 9-5.6 13.3-0.6 1.1-0.6 1.1-1.2 2.3q-1.6 2.7-3.2 5.4-1-0.2-2-0.4c-14.7-2.8-32.9-4.9-46 3.4q-1.2 0.8-2.5 1.6c-8.4 5.9-12.9 13.6-15.5 23.4q-0.3 1-0.6 1.9c-3.7 12.9-2.4 27.2 3.6 39.1 4.8 8.3 10.4 13.7 19 18q3.1 0.3 6.1 0.6c1.7 0.1 1.7 0.1 3.3 0.2q1.3 0.1 2.6 0.2 0.1-1.2 0.3-2.4c1.4-12.4 4.1-24.4 6.7-36.6 11.9 0 23.8 0 36 0-1.1 10.1-1.1 10.1-1.9 14.5q-0.3 1.5-0.6 3-0.3 1.5-0.6 3.1-0.3 1.6-0.6 3.3-0.9 5.1-1.9 10.2-0.6 3.4-1.2 6.9-1.6 8.5-3.2 17c-23.7 6.2-49.4 11.6-72.6 0.2-10.7-6.3-18.9-13.6-25.4-24.2-0.7-1.1-0.7-1.1-1.4-2.3-8.7-15.5-10.5-36.3-5.9-53.4q1.1-3.2 2.3-6.3 0.5-1.3 0.9-2.7c7.1-19.2 21.6-33.2 39.8-41.9 12.2-5.1 24.6-6.6 37.7-6.5z"/><path class="d" d="m206 50c36 0 71.9 0 109 0 0 6.7 0 6.7-0.9 10.4-1 3.9-1.5 7.6-2.1 11.6-12.5 0-25.1 0-38 0-0.3 4-0.7 7.9-1 12q-0.6 3.7-1.4 7.3-0.2 1-0.4 2-0.4 2-0.9 4-1.2 5.6-2.3 11.3c-0.3 1.1-0.3 1.1-0.5 2.3-1.8 8.5-3.4 17-5 25.4q-0.2 1.2-0.4 2.3-1.5 8-3 15.9-1.5 8.1-3 16.2-0.6 3.2-1.2 6.4-0.3 1.9-0.7 3.9-0.3 1.6-0.6 3.4c-0.6 2.6-0.6 2.6-1.6 4.6-11.5 0-23.1 0-35 0 1.1-10.1 1.1-10.1 1.9-14 0.2-1.2 0.2-1.2 0.5-2.6q0.2-1.3 0.5-2.7 0.6-3 1.1-6 0.3-1.6 0.6-3.2c2.9-15.1 5.8-30.2 8.2-45.3 1.5-9.4 3.2-18.7 5.3-28 1.1-5.1 2-10.1 2.9-15.2-11.9 0-23.8 0-36 0 1-11 1-11 4-22z"/><path class="e" d="m198 41c42.2 0 84.5 0 128 0-1.1 9-1.1 9-1.9 13q-0.3 1.3-0.5 2.7-0.3 1.3-0.5 2.7-0.3 1.3-0.6 2.6-1.7 9-3.5 18c-12.2 0-24.4 0-37 0-1 5.9-2 11.9-3 18q-0.8 4.6-1.7 9.1c-0.2 1-0.2 1-0.4 2.1q-0.4 2.4-0.9 4.8c-1.5 0.5-1.5 0.5-3 1-0.1 0.8-0.1 0.8-0.3 1.7-2.1 12.4-4.3 24.7-6.8 36.9-1.7 8.3-3.2 16.5-4.6 24.8-0.8 5.3-1.9 10.4-3.3 15.6-2-1.6-2-1.6-4-4 0-3 0-3 0.6-6.4 0.3-1.8 0.3-1.8 0.7-3.8q0.3-1.8 0.7-3.8 0.3-1.7 0.6-3.5 1-5.2 2-10.5 0.6-2.9 1.1-5.8 1.3-7.1 2.7-14.2 0.8-4 1.5-8 0.7-3.7 1.5-7.5c1.3-6.8 1.3-6.8 1.7-13.8-0.1-4.4 0.6-8.3 1.4-12.6q0.2-1 0.4-2.2 0.8-3.9 1.6-7.9c1.7-8.9 1.7-8.9 3.5-18 12.5 0 25.1 0 38 0q0.5-2 1-4 0.5 1.4 0.9 2.9c1 3 1 3 2.1 5.1q0.2-1.1 0.4-2.3 1-5.2 2-10.4 0.3-1.8 0.6-3.6 0.4-1.7 0.7-3.5 0.3-1.6 0.6-3.2c0.7-2.9 1.6-5.4 2.7-8q-1.5 0-3 0c-0.7 0.7-0.7 0.7-1.4 1.5-2.1 2-3.3 1.9-6.2 1.9q-1.4 0-2.9 0-1.5 0-3.1 0-1.6 0-3.3 0-5.4 0-10.8-0.1-3.8 0-7.5 0-7.9 0-15.8 0-10.1-0.1-20.2-0.1-7.7 0-15.5 0-3.7 0-7.4 0-5.2 0-10.4 0-1.6 0-3.2 0-1.4-0.1-2.8-0.1-1.3 0-2.5 0c-2-0.1-2-0.1-4-1.1q0.5 0.5 1 1c-0.6 8.5-2.4 16.6-4 25 12.2 0 24.4 0 37 0q-1 2-2 4-0.1 3 0 5.9c0 3.2-0.6 6.2-1.3 9.4q-0.4 2.1-0.8 4.2-0.2 1.1-0.4 2.2-1.2 5.9-2.3 11.8-0.5 2.6-0.9 5.1-0.3 1.3-0.5 2.7-1.6 8.5-3.2 17-1.4 7.4-2.8 14.9-1.3 7.3-2.7 14.5-0.5 2.8-1 5.5-0.7 3.9-1.5 7.7-0.2 1.1-0.4 2.3c-0.7 3.8-1.5 7.3-3.2 10.8-2.1 1.3-2.1 1.3-4 2 0.7-7.7 2.1-15.3 3.6-22.9q1-5 1.9-10.1 0.4-2 0.8-4 0.1-1 0.3-2 3.6-19 7.2-38 0.1-1 0.3-2 0.4-2 0.8-4 1-5.2 1.9-10.5 0.2-1 0.4-2.2 0.4-2.1 0.8-4.2c0.5-2.8 1.1-5.4 2-8.1q-1.5 0.5-3 1 0.5-3 1-6c-12.9 0-25.7 0-39 0 1.3-5.9 2.6-11.8 3.9-17.8q0.6-2.8 1.3-5.6 0.5-2.2 1-4.4 0.2-1.2 0.5-2.3c0.6-3 1.3-6 2.3-8.9z"/><path class="f" d="m142.7 40.8c16-0.6 31.8 2.3 45.3 11.2 2 1.9 2 1.9 3 4-1.2 3.6-3 6.9-4.8 10.3-0.8 1.5-0.8 1.5-1.6 3q-0.9 1.5-1.7 3c-0.9 1.6-0.9 1.6-1.7 3.1q-2.1 3.8-4.2 7.6-2-1.5-4-3 0.5 1.5 1 3-0.9-0.2-1.8-0.4-1.2-0.3-2.4-0.5-1.1-0.3-2.3-0.6-1.3-0.2-2.5-0.5-1.1-0.3-2.3-0.6c-12.6-2-25.6-1-36.4 6-8.2 6.4-12.6 14.7-14.1 24.8-0.1 0.9-0.1 0.9-0.2 1.8q0.5 0 1 0 0.1 1.8 0.3 3.7c1 12.8 2.5 25.1 11.8 34.8 3.1 2.4 6.1 3.4 9.9 4.5 0-1.5 0-1.5-0.1-3 0.1-4 0.6-7.8 1.4-11.7q0.4-1.9 0.8-3.9 0.4-2.4 0.9-4.8c1-5.2 2-10.3 3-15.6 17.8 0 35.6 0 54 0-0.7 4.3-1.3 8.6-2 13-1 0.5-1 0.5-2 1-0.8 2.6-1.4 5.2-2 7.8q-0.2 1.1-0.5 2.2c-1.2 5.2-2.1 10.5-3 15.8-0.9 5.8-2 11.6-3.1 17.5q-0.4 1.8-0.7 3.7-0.9 4.5-1.7 9c-2-1-2-1-4-2-0.3-7 0.8-13.5 2.2-20.4q0.3-1.7 0.7-3.5 1-5.6 2.1-11.1 0.7-3.8 1.4-7.6 1.8-9.2 3.6-18.4c-12.9 0-25.7 0-39 0-1.5 8.7-1.5 8.7-3 17.3-1.4 7.7-3 15.2-5 22.7-10.5-0.8-16.6-4.5-24-12-7.8-9.5-10.9-22.9-9.8-35 1.7-13.8 6.3-24.5 16.8-34 2.9-1.9 5.8-3.6 9-5q0-1 0-2c5.7-2.4 11-2.3 17.1-2.3 1.5 0 1.5 0 3.1 0 7.6 0.1 14.5 0.9 21.8 3.3q0.4-1 0.7-2c1.7-3.9 3.5-7.6 5.4-11.3q0.6-1.1 1.2-2.3 1.3-2.7 2.7-5.4-0.9-0.2-1.9-0.4c-2.2-0.6-3.8-1.4-5.7-2.5-4-2.1-7.9-3-12.4-3.7-2-0.4-2-0.4-3-1.4-15.7-1.4-30.9 0.7-46 5-1.3 0.2-1.3 0.2-2.6 0.5-14.2 3.1-25.9 15.8-33.4 27.5-10.2 17.3-11.9 34.4-13 54-3-2-3-2-3.4-3.9q0-1.2 0-2.4-0.1-1.3-0.1-2.6 0-1.4 0.1-2.8c0-1.4 0-1.4 0-2.9 0.5-22.2 10.7-42 26.4-57.4 15-14.1 34.4-21.2 54.7-22.2z"/><path class="g" d="m806.7 43.9c1.3 0 1.3 0 2.6 0 1.2 0 1.2 0 2.5 0q1.1 0 2.2 0c2 0.1 2 0.1 5 1.1-0.4 1.6-0.4 1.6-0.8 3.2-4 17.2-6.5 34.2-7.2 51.8q-1.7-0.1-3.5-0.1c-13.8-0.4-24.3 1.8-36.4 8.9-2.1 1.2-2.1 1.2-4.1 1.2q0-1 0-2c0.9-0.5 0.9-0.5 1.9-1.1 3.2-2.9 3.2-6.3 3.7-10.4q0.4-2.4 0.7-4.9 0.2-1.2 0.4-2.4c0.4-2.8 0.9-5.6 1.5-8.4 1.2-5.9 1.2-5.9 0.8-11.8-2.5-2.1-5.1-3.6-8-5 2.5-0.7 4.4-1 7-1 0.7-3 1.3-5.9 2-9q-3 0-6 0c3-2.6 5.1-4.1 9-5q4.1-1.5 8.1-3.1c6.2-2 12.2-2.1 18.6-2z"/><path class="h" d="m201 43c39.9 0 79.9 0 121 0 1 4.1 0.9 5.7 0 9.7q-0.3 1.6-0.6 3.3c-0.4 1.7-0.4 1.7-0.8 3.4q-0.3 1.7-0.7 3.5-0.6 3.1-1.3 6.3-0.8 3.9-1.6 7.8c-2.9-2.2-3.9-3.8-4.9-7.3-0.1-4.7-0.1-4.7 2.9-19.7-36 0-71.9 0-109 0-0.3 3-0.7 5.9-1 9-1.5 6.4-1.5 6.4-3 13 11.9 0 23.8 0 36 0-0.6 7-1.3 13.3-2.9 20-1.4 6.4-2.6 12.8-3.7 19.2-0.2 1.2-0.2 1.2-0.4 2.3q-0.4 2.4-0.8 4.8c-3.9 23.7-8.5 47.2-13.2 70.7 11.5 0 23.1 0 35 0 1-5.4 1-5.4 1.9-11q1.3-7.2 2.6-14.4 0.5-2.8 1-5.5 1.8-9.8 3.6-19.5 0.6-3.3 1.2-6.6 0.8-4.7 1.7-9.4 0.3-1.4 0.5-2.9 0.3-1.3 0.5-2.6 0.2-1.2 0.5-2.3 0.2-0.9 0.5-1.8 1-0.5 2-1c-0.5 8.1-1.8 15.9-3.4 23.9q-0.6 3.1-1.2 6.2-1.7 8.9-3.4 17.8-1.1 5.4-2.1 10.9-0.4 2.1-0.8 4.2-0.6 2.8-1.1 5.7-0.3 1.7-0.7 3.3c-0.3 3-0.1 5.1 0.7 8q0.5 0.5 1 1c2.1-9.6 4-19.2 5.8-28.9q0.4-2 0.8-4.1 1.9-9.9 3.6-19.9 0.8-4.4 1.6-8.8 0.4-2.2 0.8-4.3 0.5-3 1-5.9 0.3-1.7 0.6-3.4c0.8-2.7 0.8-2.7 3.8-4.7-0.5 8.9-1.7 17.5-3.4 26.2-0.4 1.8-0.4 1.8-0.8 3.7q-1.1 5.7-2.2 11.5-1.2 5.7-2.3 11.4-0.7 3.6-1.4 7.1c-1.7 8.4-2.8 16.6-3.9 25.1-18.1 0-36.3 0-55 0 2.2-15.7 2.2-15.7 3.4-21.9q0.4-2 0.8-4 0.2-1 0.4-2.1 1-5 1.9-10 1.1-6.1 2.3-12.1 2-10.6 3.7-21.2c0.6-3.3 1.3-6.6 1.9-9.9q0.9-4.3 1.7-8.6c1-5.7 2.1-11.5 3.4-17.1q0.3-1.5 0.7-2.9 0.4-1.1 0.8-2.2c1.5-0.5 1.5-0.5 3-1-1.2 9.4-2.8 18.7-4.6 28q-1 5-1.9 10-0.4 2-0.8 4-0.1 1-0.3 2c-2.1 11-2.1 11-4.2 22q-0.1 1-0.3 2-0.4 2-0.8 4-0.9 5.1-1.9 10.3-0.4 2.1-0.8 4.2-0.1 1-0.3 2c-0.7 3.5-1.4 6.8-2.3 10.2-0.7 2.9-1 5.3-0.8 8.3q1.5-0.5 3-1 5.5-28.2 10.7-56.5 1.2-6.4 2.4-12.7 1-5.1 1.9-10.1 1.5-8 3-16 0.2-1.1 0.5-2.3 0.5-2.7 1-5.5c0.5-2.8 0.6-5.4 0.6-8.3q-0.1-1.8-0.1-3.6 1-1 2-2c-11.9-0.3-23.8-0.7-36-1 0-5.3 0.2-8.7 1.5-13.6 1-3.9 1.9-7.4 1.5-11.4q-1-1.5-2-3 0.8 0.5 1.7 1c2.6 1.1 4.2 1.3 7 1.3q1.4 0 2.9 0c1.5 0 1.5 0 3.1 0q1.6 0 3.3 0 5.4 0 10.8 0 3.8 0 7.5 0 7.9 0 15.7 0 9.1-0.1 18.2 0 8.8 0 17.5 0 3.7 0 7.5 0 5.2 0 10.4 0 1.5 0 3.1 0c1.4 0 1.4 0 2.8 0q1.3 0 2.5 0c2.2-0.1 2.2-0.1 4-2.3-38.9-0.3-77.9-0.7-118-1q0-0.5 0-1z"/><path class="i" d="m372 90q6.6-0.1 13.1-0.2 1.9 0 3.8-0.1 1.8 0 3.6 0 1.6 0 3.3 0c4.7 0.5 8 2.3 11.6 5.3 2.5 4.6 2.2 8.9 1.6 14-1.3 4.3-3 6.2-6.6 8.7q-1 0.6-1.9 1.3-0.8 0.5-1.5 1 0.3 0.9 0.7 1.8 1.4 4 2.9 8 0.5 1.3 1 2.7 0.5 1.4 1 2.7 0.4 1.3 0.9 2.5c0.5 2.3 0.5 2.3-0.5 6.3-5 0.3-9.9 0.7-15 1q-1.3-4.7-2.5-9.4c-0.4-1.3-0.4-1.3-0.7-2.7q-0.4-1.2-0.7-2.5-0.3-1.2-0.6-2.4c-0.5-2-0.5-2-0.5-4-2 0.5-2 0.5-4 1-1 6.3-2 12.5-3 19-5 0-9.9 0-15 0 0-7.9 0-7.9 0.8-12.1q0.3-1.4 0.6-2.9 0.3-1.4 0.6-3 0.3-1.5 0.6-3.1 0.9-4.9 1.9-9.8 0.7-3.4 1.3-6.7 1.6-8.2 3.2-16.4z"/><path class="i" d="m577 90q6.8-0.2 13.6-0.3c2 0 2 0 3.9-0.1 11.8-0.1 11.8-0.1 16.5 4.4 3.2 3.7 3.5 7.1 3.3 11.8-0.8 6.2-4.3 9.4-8.9 13.1q-0.7 0.5-1.4 1.1c0.6 2.8 1.4 5.4 2.4 8q0.4 1.2 0.8 2.3 0.9 2.3 1.7 4.7c2.1 5.8 2.1 5.8 2.1 8-3 1.5-5.8 1.4-9.1 1.6q-1.9 0.1-3.9 0.2c-1.5 0.1-1.5 0.1-3 0.2q-1-3.6-1.9-7.1-0.3-1-0.6-2c-1.1-4-1.9-7.9-2.5-11.9q-2.5 0-5 0c-0.1 1-0.1 1-0.1 2.1-0.5 6.1-1.4 11.9-2.9 17.9-5 0-9.9 0-15 0 0.7-6.2 1.7-12.2 2.8-18.3q0.3-1.5 0.5-2.9 0.6-3.1 1.1-6.1 0.9-4.6 1.7-9.3 0.6-2.9 1.1-5.9 0.2-1.3 0.5-2.8 0.2-1.2 0.5-2.6 0.2-1.1 0.4-2.2c0.4-1.9 0.4-1.9 1.4-3.9z"/><path class="f" d="m114 53c-1.3 0.7-1.3 0.7-2.7 1.5-21.4 11.7-34.3 26.7-41.6 49.9-5 18.4-2.1 39 7.2 55.6 7.1 11.9 18.4 21.7 31.7 26.2 20.7 5.2 39.5 3.6 60-1.6 2.4-0.6 2.4-0.6 5.4-0.6q0.1-1.1 0.1-2.2c0.6-7.2 1.5-14 3-21q0.3-1.5 0.6-3.1 0.9-4.7 1.9-9.4 0.6-3.3 1.2-6.5 1.6-7.9 3.2-15.8c-11.9 0-23.8 0-36 0-0.7 4.9-1.3 9.9-2 15-0.8 4.3-1.7 8.6-2.6 12.9q-0.4 1.6-0.7 3.3-0.9 3.9-1.7 7.8-2.9 0.1-5.7 0.1-1.6 0.1-3.2 0.1c-4.7-0.3-7.5-2.3-11.1-5.2q-1.3-0.8-2.6-1.7c-9.1-8.7-14.4-20.3-14.9-32.9-0.2-13.9 2.9-28.9 12.5-39.4 5.4-4.6 9.8-8.3 17-9-1.9 1.5-3.7 2.8-5.8 4-8.8 5.1-14.7 12.4-18.2 22-4.1 15.1-3.8 28.6 3 43 2.1 3.3 4.3 6.2 7 9q0.7 0.8 1.5 1.6c5.1 4.8 11.8 6.1 18.5 7.4q0.2-1.2 0.4-2.4 1-5.4 1.9-10.9 0.3-1.8 0.7-3.7 0.3-1.8 0.6-3.7 0.3-1.7 0.6-3.4c1.1-5.3 2.5-10.6 3.8-15.9 12.9 0 25.7 0 39 0-1.1 11.3-1.1 11.3-1.9 15.6-0.3 1.4-0.3 1.4-0.6 2.9q-0.2 1.5-0.5 3.1-0.3 1.6-0.6 3.2-0.6 3.4-1.3 6.7-0.9 5.2-1.9 10.3-0.6 3.3-1.2 6.5-0.3 1.6-0.5 3.1-0.3 1.5-0.6 2.9c-0.2 1.3-0.2 1.3-0.4 2.5-0.5 2.2-0.5 2.2-1.5 5.2q1.5 1.5 3 3c-9.1 3.9-18.3 5.5-28 7q-1.3 0.2-2.6 0.4c-19.5 2.6-40.6-0.6-56.8-12.3q-1.8-1.5-3.6-3.1-1.1-0.9-2.2-1.8c-12.9-10.8-21.8-27.5-23.8-44.2-0.3-5.7-0.2-11.3 0-17q0.5 0 1 0 0.1 1.6 0.2 3.2 0.1 2.1 0.2 4.2 0.1 1.1 0.2 2.2c-0.1 3.5-0.1 3.5 1.4 6.4q0.1-0.9 0.1-1.9c1.5-26 6.1-46.9 24.9-66.1 17.7-15.4 17.7-15.4 25-13z"/><path class="i" d="m439.9 89.6q1.6 0.1 3.3 0.2 1.6 0 3.3 0.1c1.2 0 1.2 0 2.5 0.1q1.7 10.6 3.4 21.1 0.6 3.6 1.2 7.2 0.8 5.2 1.7 10.4 0.2 1.6 0.5 3.2 0.2 1.5 0.5 3.1c0.2 1.3 0.2 1.3 0.4 2.6 0.3 2.4 0.3 2.4 0.3 6.4-5 0-9.9 0-15 0-0.3-4.3-0.7-8.6-1-13-4.9-0.4-9.3-0.4-14 1-2.2 3-3.6 6-5.1 9.4-1.9 2.6-1.9 2.6-5 3.4-3 0-5.9-0.3-8.9-0.8 0.7-3.5 2-6.2 3.7-9.3q0.9-1.5 1.7-3.1 0.9-1.6 1.8-3.2 0.8-1.6 1.7-3.2 4.7-8.6 9.8-17c1.7-2.8 3.1-5.7 4.5-8.6 4.5-9.4 4.5-9.4 8.7-10z"/><path class="j" d="m112 113q0.5 0 1 0 0.1 1.8 0.3 3.7c1 12.8 2.5 25.1 11.8 34.8 3.1 2.4 6.1 3.4 9.9 4.5q0-1.5-0.1-3c0.1-4 0.6-7.8 1.4-11.7q0.4-1.9 0.8-3.9 0.4-2.4 0.9-4.8c1-5.2 2-10.3 3-15.6 17.8 0 35.6 0 54 0-0.7 4.3-1.3 8.6-2 13q-1 0.5-2 1c-0.8 2.6-1.4 5.2-2 7.8q-0.2 1.1-0.5 2.2c-1.2 5.2-2.1 10.5-3 15.8-0.9 5.8-2 11.6-3.1 17.4q-0.4 1.9-0.7 3.8-0.9 4.5-1.7 9c-2-1-2-1-4-2-0.3-7 0.8-13.5 2.2-20.4q0.3-1.7 0.7-3.5 1-5.6 2.1-11.1 0.7-3.8 1.4-7.6 1.8-9.2 3.6-18.4c-12.9 0-25.7 0-39 0-1.5 8.7-1.5 8.7-3 17.3-1.4 7.7-3 15.2-5 22.7-10.5-0.8-16.7-4.4-24-12-3.9-5.2-7-10.4-7-17q2 0.5 4 1-0.2-1.1-0.4-2.2c-2.8-14.2-2.8-14.2 0.4-20.8z"/><path class="k" d="m759 67c11 5.8 11 5.8 14 10 0.1 3.5-0.2 5.7-1 9q-0.6 3-1.2 6-0.8 4.5-1.8 9c-3-0.3-5.9-0.7-9-1q-0.5 1.5-1 3 0-1 0-2c-12.5 3.9-23.8 8.2-35 15 0.4-6.6 1.4-13 2.7-19.4q0.2-1.2 0.4-2.4c0.9-4.3 1.2-5.7 4.9-8.2 3-1 3-1 5-1q0.3-1.2 0.6-2.4c1.9-4.9 4.8-8.8 8.4-12.6q1.5-0.5 3-1c-0.3 3.6-0.7 7.3-1 11 3-1 5.9-2 9-3 0.7-3.3 1.3-6.6 2-10z"/><path class="l" d="m537 90c9.6 0 19.1 0 29 0-0.3 3-0.7 5.9-1 9-5 0-9.9 0-15 0-0.7 4-1.3 7.9-2 12 4.6 0 9.2 0 14 0-0.3 3-0.7 5.9-1 9-5 0-9.9 0-15 0q-0.2 2.3-0.4 4.7c-0.4 3.5-0.9 6.8-1.6 10.3 5.6 0 11.2 0 17 0-0.3 3-0.7 5.9-1 9-10.9 0-21.8 0-33 0 2.3-16.1 2.3-16.1 3.7-23.4 0.2-1.1 0.2-1.1 0.4-2.4q0.5-2.4 1-4.9 0.7-3.8 1.4-7.6 0.5-2.4 0.9-4.8c0.3-1.1 0.3-1.1 0.5-2.3 0.5-2.9 1.1-5.7 2.1-8.6z"/><path class="m" d="m654 92c-0.6 2.9-1.6 5.3-3 8q-1-0.1-2.1-0.3-1.4-0.2-2.8-0.3-1.3-0.2-2.7-0.4-1.2 0-2.4 0-1 1-2 2c0 5.8 2.2 9.1 5.4 13.7 4 5.8 6.4 10.1 5.2 17.2-1.4 4.9-4.3 8.5-8.6 11.1-6.3 3-13.9 3.3-20.6 1.2-5-2.5-5-2.5-6.4-5.2 2-3 2-3 4-6q1 0.2 2 0.5c6.7 1.1 6.7 1.1 13.1-0.6 1.5-3.1 0.6-5.5-0.1-8.9-1.4-2.4-2.8-4.5-4.5-6.7-4.2-5.7-6.5-10-5.5-17.3 2.4-4.8 5.3-7.4 10-10 7-2.2 14.8-2 21 2z"/><path class="n" d="m324 90c14.2 0 28.4 0 43 0-0.3 3-0.7 5.9-1 9-5 0-9.9 0-15 0-0.2 2.2-0.5 4.5-0.8 6.8-1 8.8-2.8 17.4-4.7 26.1-0.9 4-1.7 8.1-2.5 12.1-5 0-9.9 0-15 0 1.6-9.8 3.3-19.5 5.1-29.3q0.4-2.3 0.9-4.6 1-5.5 2-11.1c-4.3 0-8.6 0-13 0-0.1-6.8-0.1-6.8 1-9z"/><path class="o" d="m200 45c2.1 0.9 2.1 0.9 4 3-0.1 8.3-2.5 17-4 25 12.2 0 24.4 0 37 0q-1 2-2 4-0.1 3 0 5.9c0 3.2-0.6 6.2-1.3 9.4q-0.4 2.1-0.8 4.2-0.2 1.1-0.4 2.2-1.2 5.9-2.3 11.8-0.5 2.6-0.9 5.1-0.3 1.3-0.5 2.7-1.6 8.5-3.2 17-1.4 7.4-2.8 14.9-1.3 7.3-2.7 14.5-0.5 2.8-1 5.5-0.7 3.9-1.5 7.7-0.2 1.1-0.4 2.3c-0.7 3.8-1.5 7.3-3.2 10.8-2.1 1.3-2.1 1.3-4 2 0.7-7.7 2.1-15.3 3.6-22.9q1-5 1.9-10.1 0.4-2 0.8-4 0.1-1 0.3-2 3.6-19 7.2-38 0.1-1 0.3-2 0.4-2 0.8-4 1-5.2 1.9-10.5 0.2-1 0.4-2.2 0.4-2.1 0.8-4.2c0.5-2.8 1.1-5.4 2-8.1q-1.5 0.5-3 1 0.5-3 1-6c-12.9 0-25.7 0-39 0 1.1-5 2.1-10.1 3.3-15.3q0.4-2.3 0.9-4.7 0.5-1.9 0.9-3.8 0.4-1.9 0.8-3.9c1.2-3.5 2.3-5 5.1-7.3z"/><path class="p" d="m770 43c3 0 5.9 0 9 0q-2.6 1.7-5.2 3.4-1.2 0.8-2.4 1.6-1.1 0.8-2.3 1.6c-2.2 1.4-2.2 1.4-4.1 3.4 4.5-0.5 7.3-2.4 11-5q1 0 2 0 0.5-1 1-2 0 2.5 0 5-1.2 0.2-2.4 0.4c-2.5 0.3-2.5 0.3-3.6 1.6q2 0.5 4 1c-0.3 3-0.7 5.9-1 9q-2 0.5-4 1c-0.5 0.5-0.5 0.5-1 1q2 2 4 4c-2.5-0.5-3.9-0.9-5.9-2.6-2.6-1.7-4.1-1.5-7.1-1.4q0.9 0.7 1.9 1.5 1.2 0.9 2.5 1.9c1.2 0.9 1.2 0.9 2.4 1.9 2.2 1.7 2.2 1.7 4.2 3.7q-0.5 1.5-1 3-1-0.9-2.1-1.8-1.3-1.1-2.7-2.2-1.3-1.1-2.7-2.3c-2.4-2-2.4-2-5.5-1.7-0.3 2.6-0.7 5.3-1 8q-1.9 0.8-3.9 1.5-1 0.4-2.2 0.8c-1.9 0.7-1.9 0.7-3.9 0.7 0.3-3.6 0.7-7.3 1-11-4.1 2.9-6.1 5.6-8.3 10.1-2.3 4-3.7 6.5-8.1 8.2q-1.8 0.3-3.6 0.7c1.7-6.3 4-10.9 8-16q-3 1-6 2c0-3 0-5.9 0-9 6.8-4 6.8-4 9-4q0-1 0-2-1.1-0.2-2.3-0.4c-2.7-0.6-2.7-0.6-5.7-1.6q0-1 0-2c6.5 0.8 6.5 0.8 9.2 2.1 2.1 1.3 2.1 1.3 5.8-0.1-2.6-1.7-5.3-3.3-8-5 4-1 4-1 5.9-0.2q2.6 1.6 5.1 3.2c1-3 2-5.9 3-9 3.3-0.7 6.6-1.3 10-2-0.3 2.6-0.7 5.3-1 8q0.7-0.6 1.5-1.3 0.9-0.8 1.9-1.6 0.9-0.9 1.9-1.7c1.7-1.4 1.7-1.4 3.7-2.4-0.5-1-0.5-1-1-2z"/><path class="q" d="m498 90c5 0 9.9 0 15 0q-1.8 10.9-3.8 21.7c-1.5 7.7-2.8 15.5-4.2 23.3 5.6 0 11.2 0 17 0-0.3 3-0.7 5.9-1 9-10.9 0-21.8 0-33 0 1.2-7.2 2.4-14.4 3.7-21.6 0.2-1.3 0.2-1.3 0.4-2.5q0.5-2.7 1-5.3 0.7-4 1.4-8.1 0.5-2.5 0.9-5.1c0.3-1.2 0.3-1.2 0.5-2.4 0.5-3.1 1.1-6 2.1-9z"/><path class="r" d="m228 85q1 0 2 0c-1.2 9.4-2.8 18.7-4.6 28q-1 5-1.9 10-0.4 2-0.8 4-0.1 1-0.3 2-2.1 11-4.2 22-0.1 1-0.3 2-0.4 2-0.8 4-0.9 5.1-1.9 10.3-0.4 2.1-0.8 4.2-0.1 1-0.3 2c-0.7 3.5-1.4 6.8-2.3 10.2-0.7 2.9-1 5.3-0.8 8.3 1.5-0.5 1.5-0.5 3-1 0.5-1 0.5-1 1-2q0 1 0 2c1.8-0.1 1.8-0.1 3.6-0.1q6.7-0.3 13.4-0.5 2.9-0.1 5.8-0.2 4.1-0.2 8.3-0.3 1.2 0 2.6-0.1c2.4 0 2.4 0 6.3 0.2 1 1.5 1 1.5 2 3 2.1-9.6 4-19.2 5.8-28.9q0.4-2 0.8-4.1 1.9-9.9 3.6-19.9 0.8-4.4 1.6-8.8 0.4-2.2 0.8-4.3 0.5-3 1-5.9 0.3-1.7 0.6-3.4c0.8-2.7 0.8-2.7 3.8-4.7-0.5 8.9-1.7 17.5-3.4 26.2-0.4 1.8-0.4 1.8-0.8 3.7q-1.1 5.7-2.2 11.5-1.2 5.7-2.3 11.4-0.7 3.6-1.4 7.1c-1.7 8.4-2.8 16.6-3.9 25.1-18.1 0-36.3 0-55 0 2.2-15.7 2.2-15.7 3.4-21.9q0.4-2 0.8-4 0.2-1 0.4-2.1 1-5 1.9-10 1.1-6.1 2.3-12.1 2-10.6 3.7-21.2c0.6-3.3 1.3-6.6 1.9-9.9q0.9-4.3 1.7-8.6c3.8-21.1 3.8-21.1 5.9-23.2z"/><path class="n" d="m472 90c5 0 9.9 0 15 0-0.6 7-1.6 13.7-2.8 20.6q-0.3 1.4-0.6 2.9-0.8 4.6-1.7 9.1-0.5 3.1-1.1 6.2-1.4 7.6-2.8 15.2c-5 0-9.9 0-15 0 0.5-6.2 1.1-12.1 2.4-18.1 0.8-3.7 1.4-7.4 2.1-11 0.8-4.2 1.5-8.3 2.6-12.3 1.1-4.2 1.5-8.3 1.9-12.6z"/><path class="s" d="m133 78c-1.1 0.5-1.1 0.5-2.1 1-10.6 5.3-17.9 12.7-21.9 24-4.1 15.1-3.8 28.6 3 43 2.1 3.3 4.3 6.2 7 9q0.7 0.8 1.5 1.6c5.1 4.8 11.8 6.1 18.5 7.4q0.2-1.2 0.4-2.4 1-5.4 1.9-10.9 0.3-1.8 0.7-3.7 0.3-1.8 0.6-3.7 0.3-1.7 0.6-3.4c1.1-5.3 2.5-10.6 3.8-15.9 12.9 0 25.7 0 39 0-1.1 11.3-1.1 11.3-1.9 15.6q-0.3 1.4-0.5 2.9-0.3 1.5-0.6 3.1c-0.3 1.6-0.3 1.6-0.6 3.2q-0.6 3.4-1.2 6.7-1 5.2-1.9 10.3-0.6 3.3-1.2 6.5-0.2 1.6-0.5 3.1-0.3 1.5-0.6 2.9-0.2 1.3-0.4 2.5c-0.6 2.2-0.6 2.2-2.6 5.2-2 0.8-2 0.8-4.5 1.4q-1.4 0.3-2.8 0.6c-1.4 0.3-1.4 0.3-2.9 0.6q-1.4 0.3-2.8 0.7c-16.1 3.6-35.3 5.6-51-0.3-1.5-0.5-1.5-0.5-3-1.1-15.4-5.8-25.9-15.8-34-29.9q-0.6-1-1.2-2.1c-6.4-11.9-6.1-23.7-5.8-36.9q0.5 0 1 0 0.1 1.9 0.3 3.9c1.5 18.4 5.4 37.1 19.7 50.1 15.4 12.4 32.5 18.5 52.5 16.8 9.9-1.1 19.5-2.8 29.1-5.2 2.4-0.6 2.4-0.6 5.4-0.6q0.1-1.1 0.1-2.2c0.6-7.2 1.5-14 3-21q0.3-1.5 0.6-3.1 0.9-4.7 1.9-9.5 0.6-3.2 1.2-6.4 1.6-7.9 3.2-15.8c-11.9 0-23.8 0-36 0-0.7 4.9-1.3 9.9-2 15-0.8 4.3-1.7 8.6-2.6 12.9q-0.4 1.6-0.7 3.3-0.9 3.9-1.7 7.8-2.9 0.1-5.7 0.1-1.6 0.1-3.2 0.1c-4.7-0.3-7.5-2.3-11.1-5.2q-1.3-0.8-2.6-1.7c-9.1-8.7-14.4-20.3-14.9-32.9-0.2-13.8 2.9-29 12.5-39.4 11.8-9.6 11.8-9.6 17-8z"/><path class="t" d="m142.7 40.8c16-0.6 31.6 2.4 45.3 11.2 1 1.5 1 1.5 2 3-3.2 1-4.6 1.1-7.8-0.1q-1.4-0.8-2.9-1.6c-5.3-2.9-10.5-4.8-16.3-6.3q-0.9-0.3-1.8-0.5c-12.5-2.8-28-1.2-40.2 2.5q-1 0.3-2.1 0.6c-19.8 6.4-35 19.9-44.7 38.2-7.2 15.3-8.2 30.6-9.2 47.2-3-2-3-2-3.4-3.9q0-1.2 0-2.4-0.1-1.3-0.1-2.6 0-1.4 0.1-2.8c0-1.4 0-1.4 0-2.9 0.5-22.2 10.7-42 26.4-57.4 15-14.1 34.4-21.2 54.7-22.2z"/><path class="u" d="m803.7 43.5q2.1 0 4.3 0.1 1.1 0 2.2 0.1c3.2 0.1 5.8 0.3 8.8 1.3-0.4 1.6-0.4 1.6-0.8 3.2-4 17.2-6.5 34.2-7.2 51.8-3.6-0.7-7.3-1.3-11-2q0-1.5 0-3-1-0.5-2-1c0.3-1 0.3-1 0.6-2.1 1.7-5.7 2.8-11 3.1-17q0.1-0.9 0.3-1.9 1-0.5 2-1 1 0.5 2 1-0.1-1.2-0.1-2.4c0.1-2.6 0.1-2.6 2.1-4.6q-1.5-0.5-3-1 0.9-10 2-20c-2.5 0.7-2.5 0.7-5 2-0.7 2-0.7 2-1 4q-1.5 0.5-3 1c-1-3-1-3-0.1-5.7 2.1-2.3 2.1-2.3 5.8-2.8z"/><path class="v" d="m276 76q1.5 1 3 2c-0.5 9.2-2 18.1-3.8 27.2q-0.4 2.1-0.8 4.2-2.7 14.4-5.6 28.7c-1.6 7.7-3 15.5-4.3 23.3-1.8 10.9-4.2 21.7-6.5 32.6-2-1.6-2-1.6-4-4-0.1-2.8-0.1-2.8 0.5-6.1q0.4-1.9 0.7-3.8 0.4-2 0.8-4.1 0.4-2.1 0.7-4.2 1.3-7 2.6-14 0.5-2.6 1-5.2 1-5.4 2-10.8 1.3-6.8 2.6-13.7 1-5.3 2-10.7 0.5-2.5 1-5 2.5-13.5 5.3-27 0.2-1.2 0.5-2.5c1.2-5.8 1.2-5.8 2.3-6.9z"/><path class="w" d="m233 77q1 0 2 0c0.1 5.3-0.2 10-1.3 15.3q-0.4 2.1-0.8 4.2-0.2 1.1-0.4 2.2-1.2 5.9-2.3 11.8-0.5 2.6-0.9 5.1-0.3 1.3-0.5 2.7-1.6 8.5-3.2 17-1.4 7.4-2.8 14.9-1.3 7.3-2.7 14.5-0.5 2.8-1 5.5-0.7 3.9-1.5 7.7-0.2 1.1-0.4 2.3c-0.7 3.8-1.5 7.3-3.2 10.8-2.1 1.3-2.1 1.3-4 2 0.7-7.7 2.1-15.3 3.6-22.9q1-5 1.9-10.1 0.4-2 0.8-4 0.1-1 0.3-2 3.6-19 7.2-38 0.1-1 0.3-2 0.4-2 0.8-4 0.9-5.1 1.9-10.2c3.7-20.3 3.7-20.3 6.2-22.8z"/><path class="x" d="m112 113q0.5 0 1 0 0.1 1.8 0.3 3.7c1 12.8 2.5 25.1 11.8 34.8 3.1 2.4 6.1 3.4 9.9 4.5q0.5-2 1-4 1 0 2 0c0.2-1.3 0.2-1.3 0.3-2.5 1.2-8.9 2.9-17.7 4.7-26.5q1.5 0.5 3 1c0.1 5-0.3 9.5-1.3 14.4q-0.2 1-0.4 2-0.4 2.1-0.8 4.3-0.7 3.2-1.3 6.4c-2 10.6-2 10.6-3.2 12.9-10.5-0.7-16.7-4.5-24-12-3.9-5.2-7-10.4-7-17q2 0.5 4 1-0.2-1.1-0.4-2.2c-2.8-14.2-2.8-14.2 0.4-20.8z"/><path class="y" d="m803 45q2 0 4 0c0.2 6.9-0.6 13.2-2 20q2 0.5 4 1-1 1-2 2c-0.6 2.6-0.6 2.6-1 5q-1.5 0-3 0-0.2 1.5-0.4 3.1-0.2 2-0.5 4-0.1 1-0.2 2c-0.5 4.2-1.5 7.9-2.9 11.9 0.3 2.3 0.3 2.3 1 4q2 0.5 4 1c-6.4 0.5-6.4 0.5-13 1q-0.5-2.5-1-5c-2.9-0.2-2.9-0.2-5 1 0-2.6 0-5.3 0-8q1.5 0 3 0 1-2.5 2-5 0.5 2 1 4 2 0 4 0 0.7-3.1 1.4-6.2 0.4-1.7 0.8-3.5 0.4-1.6 0.8-3.3 0.3-1.4 0.7-2.9 0.1-1 0.3-2.1-0.5-0.5-1-1c-0.5-2.7-0.7-5.3-1-8q-2 0-4 0-0.2-0.9-0.4-1.8c-0.6-2.5-0.6-2.5-2.6-5.2q0.9-0.1 1.8-0.3c2.8-0.9 3.6-2.3 5.2-4.7 1 1.5 1 1.5 2 3q1 0 2 0 0.2-1.2 0.4-2.4c0.6-2.6 0.6-2.6 1.6-3.6z"/><path class="z" d="m202 44c38.9 0 77.9 0 118 0-3 4-3 4-5.1 4.5-1.2 0-1.2 0-2.5 0q-1.4 0-2.8 0-1.6 0-3.2 0c-1.6 0-1.6 0-3.3 0q-5.4 0.1-10.8 0-3.7 0-7.5 0-7.8 0.1-15.7 0-9.1 0-18.2 0-8.7 0.1-17.5 0-3.7 0-7.4 0-5.2 0.1-10.4 0c-1.6 0-1.6 0-3.2 0-1.4 0-1.4 0-2.8 0q-1.2 0-2.5 0c-2.1-0.5-2.1-0.5-5.1-4.5z"/><path class="A" d="m782 50q0 1 0 2 1 0 2 0-0.2 1-0.3 2.1-0.2 1.3-0.4 2.7c-0.2 1.4-0.2 1.4-0.4 2.7-0.2 2.6-0.2 2.6 1.6 4.2 0.7 0.6 0.7 0.6 1.5 1.3q0 1 0 2 2 0.5 4 1-1.5 1-3 2c-1.2 2.1-1.2 2.1-2 4q-0.5 0-1 0-0.3 1.4-0.5 2.9c-1.3 7-2.7 13.5-5.6 20-1 2.1-1 2.1-1.3 4.7-0.7 2.9-1.7 3.8-4 5.7q-1 0.8-1.9 1.6c-1.7 1.1-1.7 1.1-3.7 1.1q0-1 0-2c0.9-0.5 0.9-0.5 1.9-1.1 3.2-2.9 3.2-6.3 3.7-10.4q0.4-2.4 0.7-4.9 0.2-1.2 0.4-2.4c0.4-2.8 0.9-5.6 1.5-8.4 1.2-5.9 1.2-5.9 0.8-11.8-2.5-2.1-5.1-3.6-8-5 2.5-0.7 4.4-1 7-1 0.7-3 1.3-5.9 2-9q-3 0-6 0c3.7-3.5 5.9-4.5 11-4z"/><path class="B" d="m232 96q0.5 0 1 0c-0.4 12.5-2.9 24.7-5.2 36.9q-0.6 3.4-1.2 6.7-4.5 24.8-9.6 49.4c11.5 0 23.1 0 35 0 0.6-3.6 1.3-7.3 1.9-11q1.3-7.2 2.6-14.4 0.5-2.8 1-5.5 1.8-9.8 3.6-19.5 0.6-3.3 1.2-6.6 0.8-4.7 1.7-9.4 0.3-1.4 0.5-2.9c0.3-1.3 0.3-1.3 0.5-2.6q0.2-1.2 0.5-2.3 0.2-0.9 0.5-1.8 1-0.5 2-1c-0.6 9.1-2.2 18-3.9 26.9q-0.5 2.3-0.9 4.6-1.1 5.9-2.3 11.8-1.4 7.1-2.7 14.2-2.1 10.8-4.2 21.5c-12.9 0-25.7 0-39 0 0.6-6.4 1.4-12.6 2.6-18.9 0.2-1.3 0.2-1.3 0.5-2.6q0.7-4 1.5-8.1 0.5-2.8 1.1-5.6 1.4-7.5 2.8-14.9 1.4-7.6 2.9-15.2 2.8-14.8 5.6-29.7z"/><path class="C" d="m198 41c42.2 0 84.5 0 128 0-1.1 9-1.1 9-2 13.4-0.2 1.4-0.2 1.4-0.5 2.8q-0.3 1.4-0.6 2.8-0.2 1.4-0.5 2.9-0.7 3.6-1.4 7.1-1.5 0-3 0c0.5-8.2 1.3-17.6 5-25-2.4-1.2-4-1.1-6.7-1.1-1.5 0-1.5 0-3.1 0q-1.6 0-3.3 0-1.7 0-3.5 0-5.8 0-11.6 0-3.9 0-7.9 0-8.4 0-16.8 0-9.7 0-19.4 0-8.3 0-16.6 0-4.9 0-9.9 0-5.5 0-11.1 0-1.6 0-3.3 0-1.5 0-3.1 0-1.3 0-2.6 0c-2.2 0-2.2 0-4.1 1.1q-0.5 1-1 2-1 0-2 0 0.5-3 1-6z"/><path class="D" d="m146.8 44.8q1.5-0.1 3-0.1c9.6-0.1 17.9 2.1 26.7 5.9 1.5 0.6 1.5 0.6 3 1.2 2.5 1.2 2.5 1.2 5.5 3.2 2.6 0.2 2.6 0.2 5 0 0 4.4-0.8 5.9-2.8 9.6q-0.9 1.6-1.8 3.3-0.9 1.6-1.9 3.4-0.9 1.6-1.9 3.4-2.3 4.1-4.6 8.3-0.6-0.7-1.3-1.4c-2.3-2.2-4.7-2.7-7.7-3.6q0-0.5 0-1 2.5 0 5 0 0.4-1 0.7-2c1.7-3.9 3.5-7.6 5.4-11.3q0.6-1.1 1.2-2.3 1.3-2.7 2.7-5.4-0.9-0.2-1.9-0.4c-2.2-0.6-3.8-1.4-5.7-2.5-4-2.1-7.9-3-12.4-3.7-2-0.4-2-0.4-3-1.4-15.7-1.4-31 0.5-46 5q0-1.5 0-3 3.3-1 6.6-1.9 1.8-0.6 3.7-1.1c7.5-2 14.7-2.2 22.4-2.2z"/><path class="E" d="m191 59c1 3 1 3 0 5.4q-0.8 1.4-1.6 2.8-0.9 1.5-1.8 3.1c-0.9 1.6-0.9 1.6-1.8 3.2-0.9 1.6-0.9 1.6-1.9 3.2-4.9 8.6-4.9 8.6-7.9 11.3q-1.4-0.7-2.9-1.4c-10.9-4.6-26.2-6.1-37.6-2.2-9.3 4.6-15.9 11.9-19.5 21.6-0.8 2.7-1.4 5.3-2 8q-1.5 0-3 0c0.9-9.7 4.2-18.1 11.1-25.2 11.4-9.3 23.6-10.8 37.9-9.8 4.4 0.6 8.7 1.7 13 3-0.5-1.5-0.5-1.5-1-3 3 1 3 1 4 3 3.8-6.1 7.3-12.3 10.6-18.8 1.4-2.2 1.4-2.2 4.4-4.2z"/><path class="v" d="m189 123q1 0 2 0-0.4 4-0.9 8-0.1 1.1-0.2 2.3c-0.5 4.3-1.3 8.3-2.4 12.5-0.8 3.6-1.4 7.3-2 10.9-0.9 5.9-2 11.7-3.1 17.6q-0.4 1.8-0.7 3.7-0.9 4.5-1.7 9-2-1-4-2c-0.2-6.6 0.6-12.6 1.9-19.1q0.3-1.6 0.5-3.2 0.7-3.3 1.3-6.5 0.9-5.1 1.8-10.1 0.6-3.2 1.2-6.4 0.3-1.5 0.6-3c1.9-9.9 1.9-9.9 5.7-13.7z"/><path class="F" d="m228 85q1 0 2 0c-1.2 9.4-2.8 18.7-4.6 28q-1 5-1.9 10-0.4 2-0.8 4-0.1 1-0.3 2-2.1 11-4.2 22c-0.1 1-0.1 1-0.3 2q-0.4 2-0.8 4-0.9 5.2-1.9 10.4-0.2 1.1-0.4 2.2-0.6 3-1.2 6-0.7 4.2-1.6 8.4c-2.7-4.1-2.4-7.2-2-12q1-3.5 2-7c0.5-3.1 1-6.2 1.4-9.3 0.6-4 1.4-7.9 2.1-11.8q1.4-7.1 2.6-14.3 1-6.4 2.3-12.8 0.9-4.3 1.7-8.6c3.8-21.1 3.8-21.1 5.9-23.2z"/><path class="G" d="m321 46c1.3 3.7 0.7 6.5 0 10.3-0.3 1.8-0.3 1.8-0.7 3.6q-0.4 1.9-0.7 3.8-0.4 1.9-0.8 3.9-0.9 4.7-1.8 9.4c-2.7-2.5-3.9-3.7-4.9-7.3-0.1-4.7-0.1-4.7 2.9-19.7-36 0-71.9 0-109 0q0-0.5 0-1 0.8 0 1.7 0 20.8 0.1 41.5 0.2 10 0 20.1 0 9.7 0.1 19.3 0.1 3.7 0 7.4 0 5.2 0 10.4 0 1.5 0.1 3.1 0.1c1.4 0 1.4 0 2.8 0 1.2 0 1.2 0 2.5 0 2.7-0.5 4.1-1.6 6.2-3.4z"/><path class="H" d="m765 71c3 1.7 5.6 3.4 8 6 0.2 3.6-0.1 5.6-1 9q-0.6 3-1.2 6-0.8 4.5-1.8 9c-3.3-0.3-6.6-0.7-10-1 0.5-10 3.3-19.4 6-29z"/><path class="I" d="m759 67c2 1 4 2 6 3-0.5 6.8-1.9 13.2-3.6 19.8-1.2 4.5-1.6 8.5-1.4 13.2q-0.5-1-1-2c-3 0.7-5.9 1.3-9 2q0.5-2 1-4 0.6-2.5 1.2-4.9 0.3-1.4 0.6-2.9 0.7-2.9 1.4-5.8c0.3-1.4 0.3-1.4 0.6-2.8q0.3-1.3 0.6-2.6c0.6-2 0.6-2 1.6-3q0.6-2.5 1.1-5.1 0.2-1.3 0.5-2.7 0.2-1.1 0.4-2.2z"/><path class="J" d="m274 113q0.5 0 1 0c-0.5 9-1.7 17.6-3.4 26.4q-0.4 1.8-0.8 3.7-1.1 5.7-2.2 11.5-1.2 5.8-2.3 11.6-0.7 3.6-1.4 7.2-2.1 10.3-3.9 20.6-1.5 0-3 0c0.8-7.3 2.1-14.6 3.3-21.8q0.3-1.9 0.7-3.9c1.4-7.8 2.8-15.6 4.5-23.4 1.7-7.4 2.9-15 4.1-22.5q0.2-1.4 0.5-2.8c0.2-1.3 0.2-1.3 0.4-2.6 0.5-2 0.5-2 2.5-4z"/><path class="K" d="m761 64c5.3-0.6 7.7 0.8 11.7 3.9q0.6 0.5 1.3 1.1 1.5-1 3-2c0.4 8.2-1.1 15.9-2.6 23.9-0.7 3.9-1.2 7.9-1.8 11.8-0.7 2.6-1.4 3.7-3.6 5.3q-1 0-2 0-0.5 1.5-1 3c-3 0.5-3 0.5-6 1q-1-1.5-2-3 0.5-1.5 1-3c2.6-0.3 5.3-0.7 8-1 1.6-5.1 2.7-10.2 3.6-15.5 0.2-1.1 0.2-1.1 0.4-2.2 0.8-4.5 1.5-8.8 1-13.3-1.6-2.2-1.6-2.2-3.8-3.7q-1.1-0.9-2.2-1.7-1-0.8-2-1.6-1.5-1.5-3-3z"/><path class="L" d="m515 161q2.2-0.1 4.4-0.1 1.2-0.1 2.4-0.1c2.2 0.2 2.2 0.2 4.2 2.2-0.3 2.6-0.3 2.6-1 5-1 0.5-1 0.5-2 1q1 1 2 2c0.5 3.2 0.3 4.6-1.4 7.3-3.8 2.5-7.2 2-11.6 1.7-0.5-6.7 1.2-12.6 3-19z"/><path class="M" d="m638 166c-0.6 6.3-1.2 13.7-5.4 18.7-2.4 1.9-4.6 2.1-7.6 2.3q-1.5-0.5-3-1c0.5-1.5 0.5-1.5 1-3q1.4 0.1 2.8 0.3c3.3 0.1 3.3 0.1 5.1-2.3q0.5-1 1.1-2c-2.3 0.3-4.6 0.7-7 1-1.6-3.2-1.5-6.5-1-10 3-5.5 8.5-4.4 14-4z"/><path class="N" d="m752 64c-0.3 4.9-0.7 9.9-1 15q-1.5 0.5-3 1c0.3-3.6 0.7-7.3 1-11-4.1 2.9-6.1 5.6-8.3 10.1-2.3 4-3.7 6.5-8.1 8.2q-1.8 0.3-3.6 0.7c1.7-6.3 4-10.9 8-16q-3 1-6 2 0-1 0-2 3.9-1.7 7.8-3.4c1-0.5 1-0.5 2.2-1 1-0.5 1-0.5 2.1-1 1-0.4 1-0.4 2-0.8 2.2-0.9 4.5-1.8 6.9-1.8z"/><path class="O" d="m66 119q0.5 0 1 0 0.1 1.9 0.3 3.9c1.5 18.4 5.4 37.1 19.7 50.1 18 14.4 35.5 16.6 58 18q0 0.5 0 1c-25.2 0.6-25.2 0.6-35-3-1.5-0.5-1.5-0.5-3-1.1-15.4-5.8-25.9-15.8-34-29.9q-0.6-1-1.2-2.1c-6.4-11.9-6.1-23.7-5.8-36.9z"/><path class="P" d="m133 78q-1 0.5-2.1 1c-10.6 5.3-17.9 12.7-21.9 24-4.1 15.1-3.8 28.6 3 43 4.3 7 10 13.4 18 16q0 1 0 2c1.5 0.5 1.5 0.5 3 1-5-0.5-8-2-12-5q-1.2-0.8-2.4-1.6c-9.3-8.6-14.6-20.4-15.1-33-0.2-13.8 2.9-29 12.5-39.4 11.8-9.6 11.8-9.6 17-8z"/><path class="Q" d="m803 45q2 0 4 0c0.3 7.6-0.1 14.8-5 21q-2 0-4 0c-0.7-2.3-1.3-4.6-2-7q-2 0.5-4 1-0.2-1.2-0.4-2.4c-0.5-2.6-0.5-2.6-1.6-4.6q0.9-0.1 1.8-0.3c2.8-0.9 3.6-2.3 5.2-4.7 1 1.5 1 1.5 2 3q1 0 2 0 0.2-1.2 0.4-2.4c0.6-2.6 0.6-2.6 1.6-3.6z"/><path class="R" d="m214 189q0.5 1 1 2c1.7 0 1.7 0 3.4-0.1q6.4-0.1 12.7-0.1 2.7 0 5.4-0.1 4-0.1 7.9-0.1 1.2 0 2.5-0.1c5.6 0 5.6 0 8.1 2.5 0.5 1 0.5 1 1 2q-9.6 0-19.1 0.1-3.3 0-6.5 0-4.7 0-9.4 0-1.4 0-2.9 0-1.4 0-2.7 0-1.2 0-2.5 0c-1.9-0.1-1.9-0.1-3.9-1.1q0.5-1 1-2c2.1-0.6 2.1-0.6 4-1q0-1 0-2z"/><path class="S" d="m145 120c14.9 0 29.7 0 45 0-3 4-3 4-4.9 4.5-1 0-1 0-2.1 0q-1.2 0-2.4 0-1.3-0.1-2.6-0.1-1.4 0-2.7 0-4.3-0.1-8.5-0.1-2.9-0.1-5.7-0.1-7.1-0.1-14.1-0.2 0-1 0-2-1 0-2 0 0-1 0-2z"/><path class="T" d="m108 135c1.8 0.2 1.8 0.2 4 1 3.3 4.5 5.8 10 7.9 15.1 1.4 2.4 2.5 2.8 5.1 3.9q3.1 1.5 6.2 3 1.6 0.8 3.2 1.6c2.6 1.4 2.6 1.4 3.6 3.4-8.1 0.4-12.3-1.4-18.6-6.7-5.2-4.8-9.3-10.4-11.4-17.3q0-2 0-4z"/><path class="U" d="m312 68q0.5 0 1 0c0.7 3 1.3 5.9 2 9q-1.5-1-3-2c-2.5-0.2-5-0.2-7.5-0.2-1.1 0-1.1 0-2.2 0q-3.5 0-7 0.1-2.4 0-4.7 0-5.8 0-11.6 0.1 0 1.5 0 3-1.5-0.5-3-1-1.2 5.7-2.4 11.3-0.3 1.6-0.6 3.2-2.2 10.2-4 20.5-1 0-2 0c1.5-13.5 4.3-26.7 7-40 12.5 0 25.1 0 38 0q0-2 0-4z"/><path class="V" d="m441 166c-0.7 4.6-1.3 9.2-2 14q-2.4 0.1-4.9 0.1-1.3 0.1-2.7 0.1c-2.4-0.2-2.4-0.2-4.4-2.2-0.4-3.9-0.3-6.4 1.4-9.9 4.1-3.3 7.5-2.4 12.6-2.1z"/><path class="W" d="m381 166c-0.7 4.6-1.3 9.2-2 14q-2.4 0.1-4.9 0.1-1.3 0.1-2.7 0.1c-2.4-0.2-2.4-0.2-4.4-2.2-0.6-4.3-0.5-6.3 1.9-9.9 4.3-2.9 7-2.5 12.1-2.1z"/><path class="X" d="m114 53c-1.3 0.7-1.3 0.7-2.7 1.5-21.1 11.6-34.5 26.5-41.6 49.6-2.2 8.9-3.1 17.8-3.7 26.9q-0.5 0-1 0c-1.1-23.4 5.9-44.4 21.3-62.2 5.7-5.9 18.8-18.8 27.7-15.8z"/><path class="Y" d="m603 166c2 2 2 2 2.4 5.3-0.4 3.7-0.4 3.7-2.5 6.7-2.9 2-2.9 2-6.7 1.9q-1.6-0.4-3.2-0.9c-1.5-3.1-1.3-5.6-1-9 2.9-4.5 5.9-4.6 11-4z"/><path class="Z" d="m200 45c2 1.3 2 1.3 4 3-0.1 3.2-0.4 5.9-1 9q-0.2 1.8-0.5 3.8c-1.5 10-1.5 10-4.3 13.3-1.9 1.3-1.9 1.3-5.2 2.9 0.8-6.8 2.4-13.3 4.1-19.9q0.4-1.8 0.8-3.6 1.1-4.2 2.1-8.5z"/><path class="a0" d="m339 160q0 2 0 4c-1.4-0.1-1.4-0.1-2.8-0.3-3.2 0-3.2 0-5.6 1.8-2.3 3.6-1.9 6.2-1.6 10.5q3 0.5 6 1 0.5-3 1-6 1.5 0 3 0c0 2.6 0 5.3 0 8-3.2 1.6-6.5 1.5-10 1-2.4-1.9-3.6-3.3-5-6-0.4-4.6 0.1-7.3 3-11 4-3.2 7-3.3 12-3z"/><path class="a1" d="m385 99c3.5-0.3 5.4-0.4 8.4 1.6 2.1 3.2 2.3 4.7 1.6 8.4-2.1 2.9-2.1 2.9-5 5-3.8 0.3-3.8 0.3-7 0q0.2-2.6 0.4-5.3 0.2-1.4 0.3-2.9c0.3-2.4 0.7-4.5 1.3-6.8z"/><path class="a2" d="m207 73.6c1.2 0 1.2 0 2.4 0q3.7 0.1 7.3 0.2 2.6 0 5.1 0 6.1 0.1 12.2 0.2c-1 2-1 2-3 4-2.9 0.4-5.3 0.5-8.2 0.4q-1.2 0-2.4 0-3.8-0.1-7.6-0.1-2.6-0.1-5.1-0.1-6.4-0.1-12.7-0.2c3.4-4.5 6.7-4.5 12-4.4z"/><path class="a3" d="m590 99c5.4-0.4 5.4-0.4 7.9 1.1 1.8 3.1 1.6 5.4 1.1 8.9-2.1 2.9-2.1 2.9-5 5-3.3 0.3-3.3 0.3-6 0-0.2-5.5 0.3-9.8 2-15z"/><path class="a2" d="m278 74q7.2-0.1 14.4-0.2 2.4 0 4.8-0.1 3.6-0.1 7.1-0.1c1.1 0 1.1 0 2.2-0.1 2 0 2 0 5.5 0.5q1.5 2 3 4c-11.5 0-23.1 0-35 0q-1-2-2-4z"/><path class="a4" d="m643 159q2 0 4 0c-0.3 2.6-0.7 5.3-1 8 3.5-0.5 3.5-0.5 7-1 0.1 4.8 0 9.2-1 14q-2 0-4 0c0.7-4 1.3-7.9 2-12-4.4 3.8-5.8 6.5-7 12q-1.5 0-3 0c0.5-7.1 1.4-14 3-21z"/><path class="a5" d="m753 46q1 0 2 0-0.2 2.1-0.4 4.3-0.2 1.1-0.3 2.3-0.1 1.2-0.3 2.4c-0.1 1-0.1 1-0.2 2-0.8 2-0.8 2-2.7 3.2-1.2 0.5-1.2 0.5-2.5 0.9q-1.3 0.6-2.7 1.1-1.4 0.5-2.8 1.1-1.4 0.5-2.9 1.1c-6.8 2.6-6.8 2.6-9.2 2.6 1-3 1-3 3.9-4.7 3.1-1.3 3.1-1.3 5.1-1.3q0-1 0-2-1.1-0.2-2.3-0.4c-2.7-0.6-2.7-0.6-5.7-1.6q0-1 0-2c6.5 0.8 6.5 0.8 9.2 2.1 2.1 1.3 2.1 1.3 5.8-0.1-2.6-1.7-5.3-3.3-8-5 4-1 4-1 5.9-0.2q2.6 1.6 5.1 3.2c1-3 2-5.9 3-9z"/><path class="a6" d="m201 45c1.9 0.6 1.9 0.6 4 2 1.7 5.5 0.3 10.4-0.9 15.9-0.7 3-1.4 6-2.1 9.1 11.9 0 23.8 0 36 0-0.6 6.7-1.2 13.1-2.6 19.7-0.2 1.1-0.2 1.1-0.4 2.1q-0.5 2.6-1 5.2c-2-3-2-3-1.8-5.4q0.4-1.3 0.7-2.7c0.8-3.8 1.2-7.1 1.1-11 0-3.9 0-3.9 2-5.9-11.9-0.3-23.8-0.7-36-1 0-5.3 0.2-8.7 1.5-13.6 1-3.9 1.9-7.4 1.5-11.4q-1-1.5-2-3z"/><path class="a7" d="m143 123q1.5 0.5 3 1c0.1 5-0.3 9.4-1.3 14.2q-0.2 1-0.4 2-0.7 3.1-1.3 6.2-0.4 2.2-0.9 4.3-1 5.1-2.1 10.3-1.5-0.5-3-1c0.6-7.5 1.7-15 3-22.4q0.3-1.6 0.5-3.3c1.4-7.9 1.4-7.9 2.5-11.3z"/><path class="a8" d="m776 62q-0.5 1-1 2-2.5 0-5 0c1.7 1.7 3.3 3.3 5 5-2.5-0.5-3.9-0.9-5.9-2.6-2.6-1.7-4.1-1.5-7.1-1.4q0.9 0.7 1.9 1.5 1.2 0.9 2.5 1.9c1.2 0.9 1.2 0.9 2.4 1.9 2.2 1.7 2.2 1.7 4.2 3.7q-0.5 1.5-1 3-1-0.9-2.1-1.8-1.3-1.1-2.7-2.2-1.3-1.1-2.7-2.3c-2.4-2-2.4-2-5.5-1.7q-0.2 1.9-0.4 3.9c-0.2 2.3-0.2 2.3-0.6 4.1q-1 0.5-2 1c0.3-4.9 0.7-9.9 1-15 6.9-1.6 12-2.1 19-1z"/><path class="a9" d="m770 43c3 0 5.9 0 9 0q-2.6 1.7-5.2 3.4-1.2 0.8-2.4 1.6-1.1 0.8-2.3 1.6c-2.2 1.4-2.2 1.4-4.1 3.4 4.5-0.5 7.3-2.4 11-5q1 0 2 0 0.5-1 1-2 0 2.5 0 5-1.2 0.2-2.4 0.4c-2.5 0.3-2.5 0.3-3.6 1.6q2 0.5 4 1 0 1 0 2c-9.4 0.5-9.4 0.5-19 1 1.3-8.4 1.3-8.4 2-11q1.5-1 3-2c-0.3 2.6-0.7 5.3-1 8q0.7-0.6 1.5-1.3 0.9-0.8 1.9-1.6 0.9-0.9 1.9-1.7c1.7-1.4 1.7-1.4 3.7-2.4q-0.5-1-1-2z"/><path class="aa" d="m321 46c1.3 3.7 0.7 6.5 0 10.3q-0.3 1.8-0.7 3.6-0.4 1.9-0.7 3.8-0.4 1.9-0.8 3.9-0.9 4.7-1.8 9.4c-2-1.8-2-1.8-4-4 0-3.4 0-3.4 0.6-7.2q0.2-1 0.4-2 0.5-2.9 1-5.8 0.2-1.4 0.5-2.9c0.6-3.5 1-5.7 3.6-8.2 1-0.4 1-0.4 1.9-0.9z"/><path class="ab" d="m190 57c-1.6 5.9-4.6 11-7.6 16.4q-0.8 1.4-1.6 2.8-1.9 3.4-3.8 6.8c-1.5-1.4-1.5-1.4-3-3 0-5.1 3.4-9.5 5.9-13.7q0.7-1.2 1.4-2.4c4.1-6.9 4.1-6.9 8.7-6.9z"/><path class="ac" d="m610 166q1.5 0 3 0c-0.3 3.6-0.7 7.3-1 11 3.4-2.2 3.6-2.9 4.7-6.6q0.4-1.2 0.7-2.5 0.3-0.9 0.6-1.9 1.5 0 3 0c0.2 5.2-0.4 9.1-2 14q-2.5 0-4.9 0.1-1.4 0-2.8 0c-2.3-0.1-2.3-0.1-3.3-1.1-0.3-4.8 0.2-8.5 2-13z"/><path class="ad" d="m529 166q2 0 4 0c-0.3 3.6-0.7 7.3-1 11 3.1-2.5 3.9-3.7 4.8-7.8 0.1-1.6 0.1-1.6 0.2-3.2q2 0 4 0-0.2 2.4-0.4 4.8-0.2 1.3-0.3 2.6c-0.3 2.3-0.7 4.4-1.3 6.6q-2.5 0-4.9 0.1-1.4 0-2.8 0c-2.3-0.1-2.3-0.1-3.3-1.1q0.1-3.3 0.4-6.6 0.2-1.7 0.3-3.6 0.2-1.4 0.3-2.8z"/><path class="ae" d="m361.3 165.6q1.3 0.2 2.7 0.4 0.5 2.5 1 5c-4.6 3-4.6 3-8 3q0 1.5 0 3 3-0.5 6-1-0.5 2-1 4c-3.4 0.1-3.4 0.1-7 0-2-2-2-2-2.4-4.7 0.7-5.4 3.1-9 8.7-9.7z"/><path class="af" d="m470 166c0.7 1.8 0.7 1.8 1 4-1.6 2.5-2.8 2.9-5.7 3.7-1.1 0.1-1.1 0.1-2.3 0.3q0 1.5 0 3 3 0 6 0 0 1 0 2c-2.6 0.3-5.3 0.7-8 1-2.3-3.5-2.6-4.9-2-9 3.3-4.5 5.5-5.6 11-5z"/><path class="ag" d="m404 160c4.6 0 9.2 0 14 0q0 1.5 0 3-3 0-6 0c-0.7 5.6-1.3 11.2-2 17q-2 0-4 0 0.2-3.1 0.4-6.3 0.2-1.7 0.3-3.5c0.2-2.5 0.6-4.8 1.3-7.2q-2 0-4 0 0-1.5 0-3z"/><path class="ah" d="m784 64q1 0.5 2 1 0 1 0 2 2 0.5 4 1-1.5 1-3 2c-1.2 2.1-1.2 2.1-2 4q-0.5 0-1 0-0.3 1.5-0.6 3.1-0.4 2-0.8 4.1-0.2 1-0.4 2c-0.7 3.8-1.6 7.3-3.2 10.8q-0.5 0-1 0c-0.3-8.5 0.9-16.6 2-25q1.5 0 3 0 0.5-2.5 1-5z"/><path class="ai" d="m580 160c4.6 0 9.2 0 14 0q0 1.5 0 3-3 0.5-6 1c-1 5.3-2 10.6-3 16q-2 0-4 0 0.5-2.8 0.9-5.7 0.3-1.6 0.6-3.2 0.7-4.1 1.5-8.1-2.5 0-5 0 0.5-1.5 1-3z"/><path class="aj" d="m133 78q-1 0.5-2.1 1c-10.6 5.3-18 12.8-21.9 24-2 7.6-3.2 15.1-3 23q-1 0-2 0c-0.9-13.5 2.2-27 10.3-38.1 4.5-5 11.8-12 18.7-9.9z"/><path class="ak" d="m770.3 55.9c1.8 0.1 1.8 0.1 3.8 0.1q1.4 0 2.9 0-0.5 3-1 6c-5.6 0-11.2 0-17 0q0-2.5 0-5c3.8-1.2 7.3-1.1 11.3-1.1z"/><path class="al" d="m797 60q0.5 0 1 0c0.3 3 0.3 3 0.7 6 0.3 2.2 0.3 2.2 1.3 5-0.5 2.2-0.5 2.2-1.4 4.8-1.3 4.1-2.1 7.9-2.6 12.2q-1.5-0.5-3-1c-0.4-6.4 0.3-12.3 1.4-18.6q0.2-1 0.4-2.1c1.1-5.2 1.1-5.2 2.2-6.3z"/><path class="am" d="m563 162q1.5 0 3 0 0 2 0 4 1.5 0 3 0 0 1 0 2-2 0-4 0c-0.3 3-0.7 5.9-1 9q1.5 0 3 0 0 1.5 0 3-3 0.1-6 0c-1-1-1-1-1.1-3.9q0-1.8 0-3.7 0.1-1.7 0.1-3.6 0-1.4 0-2.8 1-0.5 2-1 0.5-1.5 1-3z"/><path class="an" d="m438 105q0.5 0 1 0c0.3 5.9 0.7 11.9 1 18-3 0-5.9 0-9 0 1.4-4.2 2.9-8.3 4.6-12.4q0.7-1.6 1.4-3.2 0.5-1.2 1-2.4z"/><path class="ao" d="m387 162q1.5 0 3 0 0 2 0 4 1.5 0 3 0 0 1 0 2-2 0-4 0c-0.3 3.3-0.7 6.6-1 10q1.5 0.5 3 1c-1 1-1 1-3.5 1.1-2.5-0.1-2.5-0.1-3.5-1.1-0.3-4.2 0.2-7.2 2-11q-1 0-2 0 0-1 0-2 1.5 0 3 0 0-2 0-4z"/><path class="ap" d="m144.9 45.4q1.3 0.1 2.7 0.2 3.2 0.2 6.4 0.4 0 0.5 0 1-1 0.1-2.1 0.2-4.6 0.3-9.3 0.7-1.6 0.1-3.3 0.2c-8.8 0.7-16.9 2.4-25.3 4.9q0-1.5 0-3 3.3-1 6.6-1.9 1.8-0.6 3.7-1.1c7.1-1.9 13.4-2 20.6-1.6z"/><path class="aq" d="m747 67q1 0.5 2 1c-0.7 0.7-0.7 0.7-1.4 1.4-3.9 4.4-6.8 8.5-9.3 13.8-1.3 1.8-1.3 1.8-3.9 2.6q-1.2 0.1-2.4 0.2c1.4-3.8 3.1-6.8 5.4-10.1q0.9-1.3 1.8-2.6c2.5-3.2 3.9-5 7.8-6.3z"/><path class="ar" d="m167.4 173.8c2.6 0.2 2.6 0.2 4.6 2.2 0.2 3.1 0.2 3.1 0 6-1 1-1 1-3.9 1.2-3.1-0.2-3.1-0.2-5.1-2.2 0.7-6.9 0.7-6.9 4.4-7.2z"/><path class="M" d="m455 160q1.5 0 3 0c-1 6.6-2 13.2-3 20q-2 0-4 0c0.4-7 1.7-13.3 4-20z"/><path class="as" d="m554 160q2 0.5 4 1c-1 6.3-2 12.5-3 19q-2 0-4 0c0.9-6.7 2-13.3 3-20z"/><path class="at" d="m781 50q0.5 1 1 2 1 0 2 0-0.1 1-0.3 2.1-0.2 1.4-0.3 2.8c-0.2 1.3-0.2 1.3-0.4 2.7q0 1.2 0 2.4 1 1 2 2c-0.8 2.4-0.8 2.4-2 5-2.1 0.7-2.1 0.7-4 1-0.4-13.6-0.4-13.6 2-20z"/><path class="au" d="m765 71q1 0.5 2 1c-1.4 9.5-3.6 18.7-6 28q-1 0-2 0c0.5-10 3.3-19.4 6-29z"/><path class="av" d="m475 166c2.6 0 5.3 0 8 0q-0.5 1.5-1 3-1 0.4-2 0.9c-2.2 0.9-2.2 0.9-2.8 3.3-0.2 1.2-0.2 1.2-0.5 2.4q-0.2 1.2-0.4 2.5-0.1 0.9-0.3 1.9-2 0-4 0 0.5-2.9 0.9-5.9 0.3-1.6 0.6-3.3c0.5-2.8 0.5-2.8 1.5-4.8z"/><path class="aw" d="m345 166c2.6 0 5.3 0 8 0q-0.5 1.5-1 3-1.5 0.5-3 1c-0.8 2.1-0.8 2.1-1.2 4.6q-0.2 1.2-0.5 2.5-0.1 0.9-0.3 1.9-2 0.5-4 1 0.2-2.7 0.4-5.3 0.2-1.5 0.3-3c0.3-2.7 0.3-2.7 1.3-5.7z"/><path class="ax" d="m796 48q0.6 0.7 1.3 1.4c1.7 1.8 1.7 1.8 4.7 2.6q-1 1-2 2-0.6 3.5-1 7-1.2-0.5-2.4-1.1-1.3-0.4-2.6-0.9c-1 0.5-1 0.5-2 1q-0.2-1.2-0.4-2.4c-0.5-2.6-0.5-2.6-1.6-4.6q0.9-0.1 1.9-0.3c2.3-0.5 2.3-0.5 3.4-2.8q0.3-0.9 0.7-1.9z"/><path class="ay" d="m489.1 165.9c1.4 0.1 1.4 0.1 2.9 0.1q0 1 0 2-2 0-4 0 0.7 1 1.5 2.1c1.7 3.3 1.8 5.3 1.5 8.9-2.7 1.4-5 1.1-8 1q0-1.5 0-3 2 0 4 0c-0.5-2.8-0.5-2.8-2-5-0.1-2.5-0.1-2.5 0-5 1-1 1-1 4.1-1.1z"/><path class="az" d="m804 61q0.5 2 1 4 2 0.5 4 1-1 1-2 2c-0.6 2.6-0.6 2.6-1 5q-0.9-0.3-1.8-0.6c-2.5-0.7-2.5-0.7-5.2 1.6q0-1.1 0.1-2.3c0-2.8 0-2.8-1.1-5.7q2 0 4 0 1-2.5 2-5z"/><path class="W" d="m418 166c2.6 0 5.3 0 8 0q-0.5 1.5-1 3-1.5 0.5-3 1c-0.7 3.3-1.3 6.6-2 10q-2 0-4 0 1-7 2-14z"/><path class="af" d="m633 166q0 1.5 0 3-2 0.5-4 1c-0.7 2.9-0.7 2.9-1 6q1 1 2 2 0 1 0 2-2.5 0-5 0c-1.6-3.2-1.5-6.5-1-10 2.6-3.8 4.5-4.5 9-4z"/><path class="aA" d="m434 166c2.3 0 4.6 0 7 0-0.7 4.6-1.3 9.2-2 14-3-0.5-3-0.5-6-1q0.7-1 1.4-2.1c1.7-3.1 2.2-5.5 2.6-8.9q-2 0.5-4 1 0.5-1.5 1-3z"/><path class="aB" d="m141 38q0 0.5 0 1c6.9 0.5 6.9 0.5 14 1q0 0.5 0 1c-9.2 0.7-18.5 1.3-28 2q0.5-2 1-4c4.4-0.7 8.6-1.1 13-1z"/><path class="aC" d="m801.9 43.6c2.2 0 2.2 0 6.1 0.4 1 1 1 1 1.3 3.7-0.1 5.9-1.9 11.6-3.3 17.3q-0.5 0-1 0 0.9-10 2-20c-2.5 0.7-2.5 0.7-5 2-0.7 2-0.7 2-1 4q-1.5 0.5-3 1c-1-3-1-3-0.1-5.7 2.1-2.3 2.1-2.3 4-2.7z"/><path class="aD" d="m309 58c0.2 2.9 0.2 2.9 0 6-3 2-3 2-5.7 1.6q-1.1-0.3-2.3-0.6-0.5-3-1-6c7.9-1 7.9-1 9-1z"/><path class="aE" d="m610 166q1.5 0 3 0c-0.3 4-0.7 7.9-1 12q1 0.5 2 1-2.5 0.6-5 1c-1-1-1-1-1.2-4.2 0.2-3.7 0.9-6.4 2.2-9.8z"/><path class="aF" d="m779 44c-0.4 2.8-0.8 3.8-2.9 5.7q-1.2 0.8-2.4 1.5-1.1 0.8-2.3 1.6c-2.7 1.3-4.4 1.4-7.4 1.2 3.5-5 8.6-10 15-10z"/><path class="aG" d="m598.3 166.3c0.8 0.3 0.8 0.3 1.7 0.7q-1 0.8-2 1.7c-2.2 2.1-2.2 2.1-2.4 4.9q0.2 1.2 0.4 2.4 1.5 1 3 2 0 1 0 2c-2.9-0.4-2.9-0.4-6-1-1.5-3.1-1.3-5.6-1-9 2.9-4.1 2.9-4.1 6.3-3.8z"/><path class="ag" d="m545 166q2 0 4 0-1 7-2 14-2 0-4 0c1-9.4 1-9.4 2-14z"/><path class="aH" d="m529 166q2 0 4 0c-0.3 4-0.7 7.9-1 12q1 0.5 2 1-2.5 0.6-5 1-0.5-0.5-1-1 0.1-3.3 0.4-6.6 0.2-1.7 0.3-3.6 0.2-1.4 0.3-2.8z"/><path class="aI" d="m214 189q0.5 1 1 2c12.5 0 25.1 0 38 0q0 0.5 0 1-1.7 0-3.5 0.1-6.5 0.1-13 0.2-2.8 0.1-5.6 0.1-4 0.1-8.1 0.2c-1.2 0-1.2 0-2.5 0-3.9 0.1-6 0.2-9.3 2.4q-1-0.5-2-1 0.5-1 1-2c2.1-0.6 2.1-0.6 4-1q0-1 0-2z"/><path class="aJ" d="m232 180c3 0 5.9 0 9 0q0 2.5 0 5c-2.3 1.2-2.3 1.2-5 2-2.3-1.1-2.3-1.1-4-3q0-2 0-4z"/><path class="aK" d="m760 100c6.8-0.1 6.8-0.1 9 1-0.9 3.9-0.9 3.9-2 5-2.7 0.1-5.3 0-8 0q0.5-3 1-6z"/><path class="aL" d="m753 47c-0.7 3-1.3 5.9-2 9-3-1.7-5.9-3.3-9-5 3.1-3.1 6.7-4 11-4z"/><path class="aM" d="m445 166q2 0 4 0c-0.7 4.6-1.3 9.2-2 14q-2 0-4 0c0.7-4.6 1.3-9.2 2-14z"/><path class="aN" d="m71 122c3 0.3 5.9 0.7 9 1-0.9 4.9-0.9 4.9-2 6-3 0.1-3 0.1-6 0-1-1-1-1-1.1-4.1q0.1-1.4 0.1-2.9z"/><path class="aO" d="m142.1 73.6q1.5 0 3 0 1.6 0.1 3.2 0.1 1.5 0 3.1 0c5.6 0 10.3 0.4 15.6 2.3q0 0.5 0 1-1.9 0-3.8 0.1-1.1 0-2.2 0c-2-0.1-2-0.1-5-1.1-7.4-0.3-14.7 0-22 1 2.5-3.1 4.2-3.4 8.1-3.4z"/><path class="aP" d="m761 64c5-0.6 7.8 0.5 11.7 3.5 1.3 1.5 1.3 1.5 1.7 4.8-0.2 1.3-0.2 1.3-0.4 2.7-4.7-3.4-9-6.8-13-11z"/><path class="aQ" d="m597 168q2 0 4 0c0 2.6 0 5.3 0 8-2 1-2 1-4 2q-1-1-2-2c0.6-6.6 0.6-6.6 2-8z"/><path class="ao" d="m649 166q2 0 4 0c0.1 4.8 0 9.2-1 14q-2 0-4 0c0.7-4 1.3-7.9 2-12q-1-0.5-2-1 0.5-0.5 1-1z"/><path class="aR" d="m201 45c1.9 0.6 1.9 0.6 4 2 1.7 5.5 0.3 10.4-0.9 15.9q-0.3 1.3-0.6 2.6-0.8 3.3-1.5 6.5c-2-3-2-3-1.8-5.6q0.3-1.5 0.6-3 0.3-1.6 0.6-3.2 0.3-1.6 0.6-3.2c1.3-6.3 1.3-6.3-1-12z"/><path class="aS" d="m66 119q0.5 0 1 0 0.1 0.8 0.2 1.7 0.3 3.9 0.7 7.9 0.1 1.3 0.2 2.7c0.4 4 0.8 7.8 2 11.6 0.9 3.1 0.9 3.1 0.9 7.1q-1 0-2 0c-3.9-10.1-3.3-20.3-3-31z"/><path class="aT" d="m768 104q0.5 1 1 2c-1.1 2.6-1.1 2.6-3 5-3.2 0.8-3.2 0.8-6 1q-1-1.5-2-3 0.5-1.5 1-3 3.1-0.3 6.2-0.7c1.8-0.1 1.8-0.1 2.8-1.3z"/><path class="aU" d="m790 83q0.5 0 1 0 0 2.5 0 5 1 0.5 2 1c-0.8 2.4-0.8 2.4-2 5-2 0.8-2 0.8-4 1-1 0.5-1 0.5-2 1 0-2.6 0-5.3 0-8q1.5 0 3 0 1-2.5 2-5z"/><path class="aC" d="m803 72q1 0.5 2 1c0.2 4.8-0.7 8.4-2 13-0.7 3.7-1.4 7.3-2 11q-0.5-1-1-2-1-0.5-2-1 0.3-1 0.6-2.1c1.7-5.7 2.8-11.1 3.2-17 0.2-1.9 0.2-1.9 1.2-2.9z"/><path class="aV" d="m169 59c3 0 5.9 0 9 0-0.9 4.9-0.9 4.9-2 6-2.4 0.2-2.4 0.2-5 0q-1-1-2-2 0-2 0-4z"/><path class="aW" d="m739.3 52.1c3.5 1.2 6.5 2.9 9.7 4.9-3 2-3 2-5.2 1.8-3.5-1-6.6-2.3-9.8-3.8 1.7-2.2 2.4-3 5.3-2.9z"/><path class="aX" d="m470 166c0.7 1.8 0.7 1.8 1 4-1.1 1.8-1.1 1.8-3 3-2.7-0.3-2.7-0.3-5-1q0-1.5 0-3-1.5 0-3 0c3.3-3.1 5.6-3.3 10-3z"/><path class="aY" d="m65 93c1.1 1.5 1.1 1.5 2 4-0.5 2.7-1.1 5.1-1.9 7.8q-0.3 1-0.6 2.1-0.7 2.5-1.5 5.1-0.5 0-1 0 0-1.8 0.1-3.7c0-2.4-0.1-4.2-0.7-6.4-0.6-3 0.4-5.2 1.6-7.9q1-0.5 2-1z"/><path class="aZ" d="m630 168c2.1 0.4 2.1 0.4 4 1-0.5 3.4-1.1 5.1-3 8q-2-0.5-4-1c0.8-5.8 0.8-5.8 3-8z"/><path class="b0" d="m437 168c0.3 5.6 0.3 5.6-2 9q-2 0-4 0c-0.4-5.5-0.4-5.5 1.3-7.9 1.7-1.1 1.7-1.1 4.7-1.1z"/><path class="b1" d="m182 60c1 3 1 3 0.3 4.8q-0.6 1-1.2 2c-0.6 1.1-0.6 1.1-1.2 2.2q-0.7 1.1-1.3 2.2-0.7 1.1-1.4 2.3-1.6 2.7-3.2 5.5-3-0.5-6-1 0-0.5 0-1 2.5 0 5 0 0.4-1 0.8-2.1c1.3-3.3 3-6.2 4.8-9.2q1-1.6 1.9-3.3 0.8-1.2 1.5-2.4z"/><path class="b2" d="m208 60c3 0 5.9 0 9 0q-0.5 2.5-1 5c-2.3 0.6-2.3 0.6-5 1q-1.5-1-3-2 0-2 0-4z"/><path class="b3" d="m731 56c3 1 5.9 2 9 3q0 1 0 2c-3 1.3-5.9 2.6-9 4 0-3 0-5.9 0-9z"/><path class="b4" d="m768 56c3 0 5.9 0 9 0q-0.5 3-1 6c-2.6-0.3-5.3-0.7-8-1q0-2.5 0-5z"/><path class="b5" d="m172 51c3.9-0.4 6.3 0 9.6 2 3.3 1.9 4.7 2.5 8.4 2q0 1.5 0 3-2.5 0-5 0-1 2-2 4c-1-3-1-3 0-6q-0.8-0.2-1.6-0.3c-3.3-0.9-6.3-2.3-9.4-3.7q0-0.5 0-1z"/><path class="b6" d="m371 168c1 2 1 2 0.9 5.5-0.3 3.6-0.3 3.6 2.1 5.5-2.4 0.6-2.4 0.6-5 1-2-2-2-2-2.4-5.4 0.4-3.6 0.4-3.6 2.4-5.5q1-0.6 2-1.1z"/><path class="a1" d="m373 168c2.1 0.4 2.1 0.4 4 1-0.9 5.8-0.9 5.8-2 8q-2 0-4 0c-0.1-3.4-0.1-3.4 0-7q1-1 2-2z"/><path class="b7" d="m114 53q-1.4 0.8-2.9 1.6-1.8 1.1-3.7 2.1-0.9 0.6-1.9 1.1c-3.9 2.3-7.7 4.6-11.5 7.2q0-1.5 0-3c4.7-4 13.9-11 20-9z"/><path class="b8" d="m763 44c3 0 5.9 0 9 0-3.3 3.6-7 6.2-11 9 0.7-3 1.3-5.9 2-9z"/><path class="b9" d="m797 66c1.6 1.1 1.6 1.1 3 3-0.3 2.7-0.3 2.7-1.3 5.8-1.2 4.4-2.2 8.6-2.7 13.2q-1-0.5-2-1c0.6-7.1 1.6-14 3-21z"/><path class="ba" d="m784 64q1 0.5 2 1 0 1 0 2 2 0.5 4 1-1.5 1-3 2c-1.2 2.1-1.2 2.1-2 4q-1.5 0-3 0-1-2-2-4 1.5-0.5 3-1 0.5-2.5 1-5z"/><path class="bb" d="m777 88q0.5 0 1 0c0.2 5.8-0.1 10.5-2 16q-1 0-2 0c-0.3-6.2 0.5-10.3 3-16z"/><path class="bc" d="m775 91c2.1 4.2 0.2 9.7-1 14-1.5 2.4-2.6 3.3-5 5q-1 0-2 0 0-1 0-2 1-0.6 1.9-1.2c2.9-2.4 2.8-4.2 3.2-7.9 0.7-5.7 0.7-5.7 2.9-7.9z"/><path class="bd" d="m144.9 45.4q1.3 0.1 2.7 0.2 3.2 0.2 6.4 0.4 0 0.5 0 1-5.7 0.3-11.3 0.6c-1.6 0.1-1.6 0.1-3.3 0.2q-1.5 0.1-3.1 0.2c-1.4 0.1-1.4 0.1-2.8 0.1-2.5-0.1-2.5-0.1-5.5-2.1 5.8-1.1 11.1-0.9 16.9-0.6z"/><path class="b3" d="m736 71q1 0.5 2 1-1.7 2.8-3.4 5.5-1 1.5-2 3.1-0.8 1.2-1.6 2.4-0.5 0-1 0c-0.5-5.3-0.5-5.3 0-8 3-2.5 3-2.5 6-4z"/><path class="be" d="m757 56q1 0.5 2 1 0 3 0 6-1 0-2 0 0 1.8 0.1 3.6c0 3.9-0.5 7.5-1.1 11.4q-0.5 0-1 0c-0.3-7.6 0.6-14.6 2-22z"/><path class="bf" d="m516 171c2.5 0.5 2.5 0.5 5 1q-0.5 2.5-1 5-2 0-4 0 0-3 0-6z"/><path class="bg" d="m791 90c1.8 3.1 2 4.2 2 8q3 0 6 0 0.5-1.5 1-3 0 1.5 0 3 2 0.5 4 1c-6.4 0.5-6.4 0.5-13 1-1.1-6.8-1.1-6.8 0-10z"/><path class="bh" d="m806.6 64.9c1.2 0.1 1.2 0.1 2.4 0.1-1 1.5-1 1.5-2 3q-0.6 2.5-1 5-1.5-0.5-3-1-0.1-3 0-6c1-1 1-1 3.6-1.1z"/><path class="bi" d="m172 177q1.5 1 3 2-0.5 2.5-1 5c-2.6 0.7-5.3 1.3-8 2q0-1.5 0-3 2.5-0.5 5-1 0.5-2.5 1-5z"/><path class="bj" d="m111 93q1 0 2 0-0.4 1-0.8 1.9c-1.6 4-2.9 8-4.2 12.1q-1 0-2 0c1.1-5.1 2.5-9.4 5-14z"/><path class="bk" d="m360 166q2.5 0.4 5 1-0.5 2.5-1 5-1.5 0.5-3 1c0-3 0-3 1-5q-1.5-0.5-3-1 0.5-0.5 1-1z"/><path class="bl" d="m779 44c-0.1 1.9-0.1 1.9-1 4-3.1 1.3-3.1 1.3-6 2 0.3-1.9 0.3-1.9 1-4 3-2 3-2 6-2z"/><path class="Y" d="m497 176q1 0 2 0c-0.6 3.3-1.7 5.5-4 8q-1 0-2 0c1.8-5.8 1.8-5.8 4-8z"/><path class="bm" d="m122 159c5.8 1.9 5.8 1.9 8 3q0 1 0 2 1.5 0.5 3 1c-4.4-0.5-7.4-1.4-11-4q0-1 0-2z"/><path class="bn" d="m170 60c2.3 0 4.6 0 7 0q-1 2-2 4c-1.9-0.3-1.9-0.3-4-1q-0.5-1.5-1-3z"/><path class="bo" d="m173 55q2.5 1.5 5 3 0 0.5 0 1c-3 0-5.9 0-9 0q2-2 4-4z"/><path class="bp" d="m781 57q0.5 0 1 0 0.2 1.2 0.4 2.4c0.4 2.7 0.4 2.7 2.6 4.6q-1 2-2 4-1 0-2 0c0-3.6 0-7.3 0-11z"/><path class="bq" d="m759 106q3 0 6 0-0.5 1.5-1 3-3 0.5-6 1 0.5-2 1-4z"/><path class="br" d="m784 64q1 0.5 2 1 0 1 0 2 2 0.5 4 1c-1.2 0.5-1.2 0.5-2.4 0.9-2.5 1-2.5 1-4.6 2.1 0.3-2.3 0.7-4.6 1-7z"/><path class="bs" d="m202 60q0.5 0 1 0c0.1 4.2 0 7.9-1 12-2-3-2-3-1.8-5.3 0.4-1.2 0.4-1.2 0.7-2.4q0.3-1.2 0.6-2.4 0.2-1 0.5-1.9z"/><path class="bt" d="m191 56q-0.5 1-1 2-2.5 0-5 0-1 2-2 4-0.5-1.5-1-3c2-3 2-3 3.9-3.8 2.1-0.2 2.1-0.2 5.1 0.8z"/><path class="bu" d="m165 174q2.5 0 5 0 0.5 1.5 1 3c-2.3 0-4.6 0-7 0q0.5-1.5 1-3z"/><path class="bv" d="m209 61c2.3 0 4.6 0 7 0q-0.5 1.5-1 3-2.5 0-5 0-0.5-1.5-1-3z"/><path class="bw" d="m100 50q1 0.5 2 1c-1 2.6-1.6 3.8-4.1 5.3q-0.9 0.3-1.9 0.7c0.6-3.3 1.5-4.8 4-7z"/><path class="al" d="m800 44q1 0.5 2 1-0.5 3-1 6-1.5 0.5-3 1-0.5-1.5-1-3c1.4-2.7 1.4-2.7 3-5z"/><path class="bx" d="m233 182c2.3 0 4.6 0 7 0q-0.5 1.5-1 3c-3-0.5-3-0.5-6-1q0-1 0-2z"/><path class="by" d="m518 163q2 0.5 4 1-0.5 2-1 4-1.5 0-3 0 0-2.5 0-5z"/><path class="bv" d="m72 125c2.3 0 4.6 0 7 0q-0.5 1.5-1 3-2.5 0-5 0-0.5-1.5-1-3z"/><path class="bz" d="m274 72c1.6 1.6 1.6 1.6 3 4-0.8 3.8-0.8 3.8-2 7-2.8-4.2-1.8-6.1-1-11z"/><path class="bA" d="m301 61c2.3 0 4.6 0 7 0q-0.5 1.5-1 3c-3-0.5-3-0.5-6-1q0-1 0-2z"/><path class="bA" d="m164 179c2.3 0 4.6 0 7 0q-0.5 1.5-1 3c-2.4-0.4-2.4-0.4-5-1q-0.5-1-1-2z"/><path class="bB" d="m235 177q2.5 0.5 5 1 0 1 0 2c-2.3 0-4.6 0-7 0q1-1.5 2-3z"/><path class="bC" d="m73 120c2.4 0.4 2.4 0.4 5 1q0.5 1 1 2c-2.3 0-4.6 0-7 0q0.5-1.5 1-3z"/><path class="bD" d="m761 64q3 0 6 0 0 2.5 0 5-3-2-6-4 0-0.5 0-1z"/><path class="bE" d="m193 58c1.1 3.3 0.8 4.7 0 8q-2 0.5-4 1c1.2-3.1 2.5-6.1 4-9z"/></svg>